/* XPM */
static char *c8beeae665e54dfeb12af97032a1de13zPeXIPdazQwbzBbo[] = {
/* columns rows colors chars-per-pixel */
"75 75 80 1 ",
"  c None",
". c #007E00",
"X c #007F00",
"o c #954800",
"O c #964D07",
"+ c #9C4C00",
"@ c #9D4D00",
"# c #9D470A",
"$ c #9F470A",
"% c #954D09",
"& c #964D08",
"* c #964C09",
"= c #964D09",
"- c #974D09",
"; c #964E09",
": c #974E09",
"> c #964F09",
", c #974F09",
"< c #964D0A",
"1 c #974E0A",
"2 c #964E0F",
"3 c #974E0F",
"4 c #994B09",
"5 c #984D09",
"6 c #994D09",
"7 c #984E08",
"8 c #984E09",
"9 c #994E09",
"0 c #994F09",
"q c #9A4F09",
"w c #9B4F09",
"e c #984D0A",
"r c #984E0A",
"t c #9B5009",
"y c #9C5009",
"u c #9D5109",
"i c #9E5109",
"p c #9F5109",
"a c #9D5209",
"s c #9E5309",
"d c #9E510A",
"f c #9F510A",
"g c #9F520A",
"h c #9F530A",
"j c #984F12",
"k c #9E5210",
"l c #A0520A",
"z c #A1520A",
"x c #A1530A",
"c c #A2530A",
"v c #A3530A",
"b c #A1540A",
"n c #A3540A",
"m c #A3550A",
"M c #A05310",
"N c #9F613D",
"B c #A0684A",
"V c #008000",
"C c #008100",
"Z c #008200",
"A c #008300",
"S c #008400",
"D c #008500",
"F c #008600",
"G c #008700",
"H c #008800",
"J c #008900",
"K c #008A00",
"L c #008B00",
"P c #008C00",
"I c #008D00",
"U c #008E00",
"Y c #008F00",
"T c #088900",
"R c #138400",
"E c #188000",
"W c #118E00",
"Q c #009000",
"! c #009100",
"~ c #009200",
/* pixels */
"                                  VV                                       ",
"                                  .IJV                                     ",
"                                   JVVFV                                   ",
"                                   VVV.IV                                  ",
"                                   VFVV.J                                  ",
"                                    J.V.VV                                 ",
"                                    VFVV.J                                 ",
"                                     VVV.FV                                ",
"                                 VVVV.VV.VV                                ",
"                                  VJJVVV.VV                .VVVVV          ",
"                                   VV..VVVF              VFFJIVV           ",
"                                    .V..VVF            .IVVFV              ",
"                                 VV VF.VVVF           VJ.FV                ",
"                 .VV             V~F..V...F          .VVFV                 ",
"            V.VFJJFJJF.VV         VF...V.VV         .FV.VV                 ",
"          VVFFV.V.VV.V.FJVV        VJ.V.VVV        VFVVVVJ~~V              ",
"        VVIJVVVVV.V.VV...VFF.       VF.V.FV       VJV.FJVVV                ",
"           VVVFJFV.VV..VV.VVJV       V..VJV       J..VV                    ",
"               VVVJFVVV.V.V..VF    VJF..VJ       .VVVV                     ",
"                   VVVVV.V.VVV.J     VF.VV       JVV..IIVV                 ",
"                    VVVVV.V.V.V.J      FVV      VV.VVVV                    ",
"                   VIFFFVV.V.V..VJ     VJV     VJVVVV                      ",
"                  VVVV.VVVVVV..VV.F    VI      VV.VIF                      ",
"                          VV.VV.V.VV   VJ     VF.JV VI                     ",
"                         VVV.V.V.VVFV   V     F.IV    V                    ",
"                       VJVV...V.V..VJV  V    V~V                           ",
"                    VVIIVVVFJFVV.VVVVV       V                             ",
"                     VVVV.VVV VJJVV.VFV                                    ",
"                             VVVVVFV.VJ                VVVVVVVVV.VV        ",
"                                  VJFVJV          VVVVJJFFVVVVVVFFJFVV     ",
"            VVVVVVVVVVV             VVFV      VVJ~JFVV...V.V..VVV..VVJVV   ",
"        VVFJFFFVFVVFFJJJFVVV                 VVV.VV.V.VV.VV.V.V..V.VVVVJV  ",
"      .FJVV...VV.VV.VV.V..FJJF.VV                  FFJ.VVV.V.VVV.F..V.V.JV ",
"     VJ..V..VV..VV.V..V.V.....VFJVV     6          VV VVVVVVFV.VVVFFV.VVVJV",
"    VFVVV..V.V.V.VV.V..V.VV.V.V.VVW~F 6:               VF.V  VF.V  VVJFVV.V",
"   VV.VVVV.FV.V.V.FJ.VVVVVVVVJJFTRF  4h                 .IV   VJF     .VVFJ",
"  VJ.VV.VFFVVVVVVJVVVVVV.J.VVVVE   #mh     V             VV    VV         V",
"  FV.VVJVV  .F.FV   VVVVVVVF     #6s6      JV                              ",
" .F.VJVV    V.JV   VJ..IV VV    ,m:6       VIV                             ",
" F.JVV      VJV    VV.JV      6h6:h        VFFV                            ",
"VIVV        IV     F.JV      ,z::h          F.VV                           ",
"FV                VIV      6ht:6:           V.VVV                          ",
"                  FV      :z::t:            VFV.VF                         ",
"                  V      66::6:             VF.V.VF                        ",
"                       6z%%:h6              VVV..VVV                       ",
"                      6s%%4z:               IV.VV.VVV                      ",
"                     :t::%m6               VV.VV.VVVVV                     ",
"                    h::::z:                  F.VV.V..FV                    ",
"                  6z::::z:                   J.V.V.VV.FV                   ",
"                 6m:%%:z:                   VJ..FVV..V.JV                  ",
"                6v%:%:w6                    VJVVVVV.V.V.J                  ",
"               6v%%:%w6                     VVVV .JV.V..F.                 ",
"               m:%%46:                      V.J  VF.V..V.F                 ",
"              h:%%%%h                       VJV  VJV.VV.VJV                ",
"             6:%:::m6                       IV   VF.VV.V.V.                ",
"            6w%%::6:                        V    VVVVVV..VJ                ",
"           6z::%:%6                              .FVVV.VVVFV               ",
"           6::%%:l6                              JF  J..V.JV               ",
"          6w::%%::                               V  VJ.V.VFV               ",
"          h::4%%m                                   VVV.V.FV               ",
"         :w%%%%6:                                   VVVV.VJ                ",
"         d6%%%6z6                                   FFF.V.F                ",
"        B+2%::6:                                   V~V.F.FV                ",
"        No2%::h:                                   VV  J.J                 ",
"        +2:%%%h                                        FFV                 ",
"       jk::%%w:                                       VJV                  ",
"       :6:4%4z:                                       V~                   ",
"       6%::%:h                                        V.                   ",
"       d%%%:::                                        V                    ",
"       b::%%6:                                                             ",
"      6l%4%:h%                                                             ",
"      6l%%%:d:                                                             ",
"      6b:%:%l:                                                             ",
"      :d::%:d:                                                             ",
"      td%::%l6                                                             "
};
