/* XPM */
static char *be8aeab78865400aa31444256cfc6f7b2nRfwUz3kiElPQR9[] = {
/* columns rows colors chars-per-pixel */
"75 75 80 1 ",
"  c None",
". c #007E00",
"X c #007F00",
"o c #954800",
"O c #964D07",
"+ c #9C4C00",
"@ c #9D4D00",
"# c #9D470A",
"$ c #9F470A",
"% c #954D09",
"& c #964D08",
"* c #964C09",
"= c #964D09",
"- c #974D09",
"; c #964E09",
": c #974E09",
"> c #964F09",
", c #974F09",
"< c #964D0A",
"1 c #974E0A",
"2 c #964E0F",
"3 c #974E0F",
"4 c #994B09",
"5 c #984D09",
"6 c #994D09",
"7 c #984E08",
"8 c #984E09",
"9 c #994E09",
"0 c #994F09",
"q c #9A4F09",
"w c #9B4F09",
"e c #984D0A",
"r c #984E0A",
"t c #9B5009",
"y c #9C5009",
"u c #9D5109",
"i c #9E5109",
"p c #9F5109",
"a c #9D5209",
"s c #9E5309",
"d c #9E510A",
"f c #9F510A",
"g c #9F520A",
"h c #9F530A",
"j c #984F12",
"k c #9E5210",
"l c #A0520A",
"z c #A1520A",
"x c #A1530A",
"c c #A2530A",
"v c #A3530A",
"b c #A1540A",
"n c #A3540A",
"m c #A3550A",
"M c #A05310",
"N c #9F613D",
"B c #A0684A",
"V c #008000",
"C c #008100",
"Z c #008200",
"A c #008300",
"S c #008400",
"D c #008500",
"F c #008600",
"G c #008700",
"H c #008800",
"J c #008900",
"K c #008A00",
"L c #008B00",
"P c #008C00",
"I c #008D00",
"U c #008E00",
"Y c #008F00",
"T c #088900",
"R c #138400",
"E c #188000",
"W c #118E00",
"Q c #009000",
"! c #009100",
"~ c #009200",
/* pixels */
"                                       VV                                  ",
"                                     VFLV                                  ",
"                                   XFFXF                                   ",
"                                  VIXVVV                                   ",
"                                  LXXVFX                                   ",
"                                 VVXVVL                                    ",
"                                 LXVVFX                                    ",
"                                XFXXVV                                     ",
"                                XVVXVVVXXV                                 ",
"          VVVVVV                VXXXXVFLX                                  ",
"           VVIIFFV              FXXXXXXF                                   ",
"              VVVVLV            FVVXXXX                                    ",
"                VLXFV           FXXXXFV VV                                 ",
"                 VVXVV          VXXXXXVVQV             VVV                 ",
"                 VVXVFX         VVVXXXXFV         VVXFFLLFLFVVV            ",
"              VQQLVXVXFV        VVVVXXFX        VVLVXXXXXXVVVVLVV          ",
"                VVVLFXXLX       VVXXXVV       XFFVVXXXXXXXXXXXVLLVV        ",
"                    XXXXL       VLXXXF       XLXVXXXXXVXXXFLFXVV           ",
"                     XXXVV       LXXXFLV    VFXXXXXXXVXLLVVV               ",
"                 VVILXXXXL       VXXFV     LXVXXXXXXVVXV                   ",
"                    VVVVXVV      VVF      LXXXXXXXXVVVV                    ",
"                      VVVVLV     VLX     LXXXXXXXXVFFFIV                   ",
"                      FLVVVV      LX    V.XXXXXXXVVVVVVVV                  ",
"                     IV VLXFV     LV   VVXXXXXXVV                          ",
"                    V    VLVF     V   VFXXXXXXXXVV                         ",
"                           VQV    V  VLVXXXXXXXXVVLV                       ",
"                             V       VXXVVXXVFLVVVVIIVV                    ",
"                                    VFXXVVFLX XXVVVVVV                     ",
"        VVVVVVVVXVVV                LVXXLVVVVV                             ",
"     VVFLFVXVVXVVFFFLVVVV          VFVFLV                                  ",
"   VVLVXXXXXXXXXXVXXXXVFLQLXV      VFVV             VVVVVVVVXXV            ",
"  VLVXXXXXXXVXXXXXXXXXVVXVXXVV                 VVVVLFLFFFVVVFFFLFVV        ",
" XLVXXXXVVXXVVXVXXVVXFFF                  VXXVLFVVXVXXXXXVXXVXXXXVLVV      ",
"VLXVXXXLFVXXXVFVVXVVV XV          r     XXLFVVVXVXXXXXXXXXXXXXXXXXXXLV     ",
"VXXVFFVV  FXFV  VXFV               ,r FQWXXVVXVVXXXXXXXXVXXXXVXXXXXXXFX    ",
"LFVVV     VLV   VIV                 lr  FRTFLFVVXVVXXXXLFVVXXVVVXXXXXXVV   ",
"X         VV    VV             V     am#   EVVVVXFXVVVVVVFVXXVXVFFVXXXXLV  ",
"                              VL      war$     FVVXVXVV   VFXFV  VVLXXXXL  ",
"                             VIV       a*l,    VV VIXXFV   VFXV    VXLXXFV ",
"                            XFFV        a,rar      VLXXX    VLV      XXLXV ",
"                           VFXF          a,*lr      XLXF     VI        VVIV",
"                          VVXVX           rr7rl,      XIV                VF",
"                         VVXXFX            ,r,,lr      VL                  ",
"                        FXXXXFX             4a**rt      V                  ",
"                       VVXXXVVV              rarr*l7                       ",
"                      VVXXXXXVI               ,l,,*lr                      ",
"                     VFVXXXVVVXV               rl*,*r7                     ",
"                    VVXXXXXXXF                  rl,*,rl                    ",
"                   VFVXXXVXXXF                   rlr**,lr                  ",
"                  VLXVXXXVFXXLV                   7l,***lr                 ",
"                  FXXXXXVXVVXFV                    ra,,4rv7                ",
"                 VVXXXXXFV VFVV                     rr**Orvr               ",
"                 LXXXXXXLX  LXV                      ,r,**,l               ",
"                VFXXXXXVFX  XLV                       a,,,**a              ",
"                XVXXXXVXFV   VI                       rl***,rr             ",
"                FXXXXXVVVV    X                        rr,,O4ar            ",
"               VLXXXXVVVVX                              w,*,**l,           ",
"               VFXXXXL  FL                              7l*,*,*r           ",
"               VFVXXXFV  V                               ,r*,*,wr          ",
"               VFXXXXVV                                   l,*r*ra          ",
"                FVXXVVF                                   rr**,*a,         ",
"                FVXXFVF                                   rl,*,*Ok         ",
"                VFXFVVQV                                   r,,*%3+B        ",
"                 FXL  VV                                   rwO%%3oN        ",
"                 VFF                                        a,**,2+        ",
"                  VFV                                       rr,*%OM3       ",
"                   QV                                       ,l,**%r,       ",
"                   VV                                        l*,*,*,       ",
"                    V                                        **,**,l       ",
"                                                             ,r*,,*l       ",
"                                                             ,w,***lr      ",
"                                                             ra,%,,lr      ",
"                                                             ,l,*%,wr      ",
"                                                             rl,*,,ar      ",
"                                                             rl,*,,wr      "
};
