/* XPM */
static char *result[] = {
/* columns rows colors chars-per-pixel */
"75 75 63 1 ",
"  c #D3363A",
". c #D3373A",
"X c #D2363B",
"o c #D3363B",
"O c #D2373B",
"+ c #D3373B",
"@ c #D4373A",
"# c #D4363B",
"$ c #D4373B",
"% c #D5373B",
"& c #D6373B",
"* c #D7373B",
"= c #D2373C",
"- c #D3373C",
"; c #D5363C",
": c #D4373C",
"> c #D5373C",
", c #D7373D",
"< c #D3383B",
"1 c #D4383B",
"2 c #D5383B",
"3 c #D6383B",
"4 c #D4383C",
"5 c #D5383C",
"6 c #D6383C",
"7 c #D7383C",
"8 c #D8383C",
"9 c #D8383D",
"0 c #D9383D",
"q c #D8393D",
"w c #D9393D",
"e c #DA393D",
"r c #DB393D",
"t c #DC393D",
"y c #DC393E",
"u c #DD393E",
"i c #DD3A3E",
"p c #DE3A3E",
"a c #DF3A3E",
"s c #E03A3E",
"d c #E03A3F",
"f c #E13A3F",
"g c #E13B3F",
"h c #E23B3F",
"j c #E33B3F",
"k c #E33B40",
"l c #E43B40",
"z c #E53C40",
"x c #E63C40",
"c c #E73C40",
"v c #E73C41",
"b c #E93D41",
"n c #EA3D41",
"m c #EA3D42",
"M c #EB3D42",
"N c #EC3D42",
"B c #F23F43",
"V c #F33F44",
"C c #F43F44",
"Z c #F44044",
"A c #F54044",
"S c #F64045",
"D c None",
/* pixels */
"DDDDDDD-1$+++++$+:<DDDDDDDDDDDDDDDDDDDDDDDDDDDDDDDDDDDDD2:+$+++++%1-DDDDDDD",
"DDDDDD$ge$++++++%ydy%>DDDDDDDDDDDDDDDDDDDDDDDDDDDDDDD>%yfy%$+++++$rh+DDDDDD",
"DDDDD+r++$OOOO+O$+++8h$2DDDDDDDDDDDDDDDDDDDDDDDDDDD2$h8$+o+++OOOO$++r+DDDDD",
"DDDD>xO++7idggdy6+Oo+++h$5DDDDDDDDDDDDDDDDDDDDDDD6$h+++oO+6ydghdi7++ol&DDDD",
"DDDD%p+++:4%>1$1$th8O $+$z:DDDDDDDDDDDDDDDDDDDDD>z$++oO9ht$1$1>%4:++Oy%DDDD",
"DDDD$yO6+DDDDDDDDD11arO++oa$DDDDDDDDDDDDDDDDDDD$a+++Ora21DDDDDDDDD+$Or$DDDD",
"DDDD%fo$rDDDDDDDDDDDD:s6++.7g2DDDDDDDDDDDDDDD%g7+++6d>DDDDDDDDDDDDp+Oa>DDDD",
"DDDDDx++8+DDDDDDDDDDDDD+aO+++l$DDDDDDDDDDDDD5j+O+Oa$DDDDDDDDDDDDD17++kDDDDD",
"DDDDD$5O$t-DDDDDDDDDDDDD4g+oO+h&DDDDDDDDDDD6g$+$+g4DDDDDDDDDDDDD>r +>oDDDDD",
"DDDDDDv$+Ou2DDDDDDDDDDDDDDy5O+7wDDDDDDDDDDD07+O$uDDDDDDDDDDDDDD$u+++x5DDDDD",
"DDDDDD$jo++wr>DDDDDDDDDDDDDw6++d$DDDDDDDDD:a#+>eDDDDDDDDDDDDD>rw+++h%DDDDDD",
"DDDDDDD1d+$O+z:DDDDDDDDDDDDDp%++v$DD1+1DD-z+++aDDDDDDDDDDDDD:z+O$+s+DDDDDDD",
"DDDDDDDD>g++++8x+>DDDDDDDDDD5zOop13$x z5$Oi++x$DDDDDDDDDD>$x8+ +Og<DDDDDDDD",
"DDDDDDDDD:i8++++6zg$$DDDDDDDD4l+o%y+$$o+y$$+l:DDDDDDDD%$fz6++++0u%DDDDDDDDD",
"DDDDDDDDDDD%p8$+++.0lxi-::2%D2r$+$. $+$ .$+Ou>D22:+-ixl0++++$8p$DDDDDDDDDDD",
"DDDDDDDDDDDD2$tr7%++O++6uhxvba+$++8>O O>7++$Oabvxhu6++O++%7ry+2DDDDDDDDDDDD",
"DDDDDDDDDDDDDDD$$yt06$+++-+++++++$+>u$u>+$++++X++-+++$60tu+$DDDDDDDDDDDDDDD",
"DDDDDDDDDDDDDDDDD>$+eaapyre0877+n+D$%+5DD+n$7780erypaae+$>DDDDDDDDDDDDDDDDD",
"DDDDDDDDDDDDDDDDDDDDD%+<:++$66>6+DDDDDDDDD16566$O+:<+%DDDDDDDDDDDDDDDDDDDDD",
"DDDDDDDDDDDDDDDDDDDDDDDDDDDDD6,DDDDDDDDDDDDD,6DDDDDDDDDDDDDDDDDDDDDDDDDDDDD",
"%%%%%%%%%%%%%%%%%%66>%%%1>:225225:DDDDDDD%>22522:>1&%%>66%%%%%%%%%%%%%%%%%%",
"kkkkkkkkkkkkkkkllkkjhjlcbmMNNMMNjS+DDDDD+ZzMMMNNNmbcljhjkllkkkkkkkkkkkkkkkk",
"+O+++++OOOO+++O+OO++++O+++O++++--i;DDDDD=r++++++O+++OO++++OO+O++++OOO+O+O++",
"$$$$$$$$$$$$$$$$$$$$$$$$$$$$$$$$Ox.DDDDD1l +$$$$$$$$$$$$$$$$$$$$$$$$$$$$$$$",
"+++++++++++++++++++++++++++++++++z<DDDDD$jO++++++++++++++++++++++++++++++++",
"++++++++++++++++++++++++++++++++Oz<DDDDDXjO++++++++++++++++++++++++++++++++",
"++++++++++++++++++++++++++++++++Oz<DDDDD$jO++++++++++++++++++++++++++++++++",
"++++++++++++++++++++++++++++++++Oz<DDDDD$jO++++++++++++++++++++++++++++++++",
"++++++++++++++++++++++++++++++++Oz<DDDDD$jO++++++++++++++++++++++++++++++++",
"+++++++++++++++++++++++++++++++++z<DDDDD$jO++++++++++++++++++++++++++++++++",
"+++++++++++++++++++++++++++++++++z<DDDDDXkO++++++++++++++++++++++++++++++++",
"+++++++++++++++++++++++++++++++O+j:DDDDD.d+++++++++++++++++++++++++++++++++",
"$$$%>>>>>>>>>>>>>>>>>>>>>>>>>>>%Ov.DDDDD+z+$>>>>>>>>>>>>>>>>>>>>>>>>>>>%$%$",
"piiafdddddddddddddddddddddddddddtC@DDDDD1Bpdddddddddddddddddddddddddddfaipi",
"DDDDDDDDDDDDDDDDDDDDDDDDDDDDDDDDDDDDDDDDDDDDDDDDDDDDDDDDDDDDDDDDDDDDDDDDDDD",
"DDDDDDDDDDDDDDDDDDDDDDDDDDDDDDDDDDDDDDDDDDDDDDDDDDDDDDDDDDDDDDDDDDDDDDDDDDD",
"DDD8CthghghhhhghhhhhhhhhhhghghgguA:DDDDD1VafhhghhghhgghhhhhhhhhhhghghpB7DDD",
"DDDDz+%$$$$$$$$$$$$$$$$$$$$$$$$$+x.DDDDD+lO+$$$$$$$$$$$$$$$$$$$$$$$$$+lqDDD",
"DDDDg++OOOOOOOOOOOOOOOOOOOOOOOO++h:DDDDD.d.+OOOOOOOOOOOOOOOOOOOOOOOOOoa5DDD",
"DDDDz+$++++++++++++++++++++++++++x<DDDDDXk++++++++++++++++++++++++++++j&DDD",
"DDDDlo+++++++++++++++++++++++++++z<DDDDD$jO++++++++++++++++++++++++++Oh*DDD",
"DDDDl#++++++++++++++++++++++++++Oz<DDDDD$jO++++++++++++++++++++++++++Oh*DDD",
"DDDDlo++++++++++++++++++++++++++Oz<DDDDD$jO++++++++++++++++++++++++++Oh*DDD",
"DDDDl#++++++++++++++++++++++++++Oz<DDDDD$jO++++++++++++++++++++++++++Oh*DDD",
"DDDDl#++++++++++++++++++++++++++Oz<DDDDD$jO++++++++++++++++++++++++++Oh*DDD",
"DDDDl#++++++++++++++++++++++++++Oz<DDDDD$jO++++++++++++++++++++++++++Oh*DDD",
"DDDDl#++++++++++++++++++++++++++Oz<DDDDD$jO++++++++++++++++++++++++++Oh*DDD",
"DDDDl#++++++++++++++++++++++++++Oz<DDDDD$jO++++++++++++++++++++++++++Oh*DDD",
"DDDDl#++++++++++++++++++++++++++Oz<DDDDD$jO++++++++++++++++++++++++++Oh*DDD",
"DDDDl#++++++++++++++++++++++++++Oz<DDDDD$jO++++++++++++++++++++++++++Oh*DDD",
"DDDDl#++++++++++++++++++++++++++Oz<DDDDD$jO++++++++++++++++++++++++++Oh*DDD",
"DDDDl#++++++++++++++++++++++++++Oz<DDDDD$jO++++++++++++++++++++++++++Oh*DDD",
"DDDDl#++++++++++++++++++++++++++Oz<DDDDD$jO++++++++++++++++++++++++++Oh*DDD",
"DDDDl#++++++++++++++++++++++++++Oz<DDDDD$jO++++++++++++++++++++++++++Oh*DDD",
"DDDDl#++++++++++++++++++++++++++Oz<DDDDD$jO++++++++++++++++++++++++++Oh*DDD",
"DDDDl#++++++++++++++++++++++++++Oz<DDDDD$jO++++++++++++++++++++++++++Oh*DDD",
"DDDDl#++++++++++++++++++++++++++Oz<DDDDD$jO++++++++++++++++++++++++++Oh*DDD",
"DDDDl#++++++++++++++++++++++++++Oz<DDDDD$jO++++++++++++++++++++++++++Oh*DDD",
"DDDDl#++++++++++++++++++++++++++Oz<DDDDD$jO++++++++++++++++++++++++++Oh*DDD",
"DDDDl#++++++++++++++++++++++++++Oz<DDDDD$jO++++++++++++++++++++++++++Oh*DDD",
"DDDDl#++++++++++++++++++++++++++Oz<DDDDD$jO++++++++++++++++++++++++++Oh*DDD",
"DDDDl#++++++++++++++++++++++++++Oz<DDDDD$jO++++++++++++++++++++++++++Oh*DDD",
"DDDDl#++++++++++++++++++++++++++Oz<DDDDD$jO++++++++++++++++++++++++++Oh*DDD",
"DDDDl#++++++++++++++++++++++++++Oz<DDDDD$jO++++++++++++++++++++++++++Oh*DDD",
"DDDDl#++++++++++++++++++++++++++Oz<DDDDD$jO++++++++++++++++++++++++++Oh*DDD",
"DDDDl#++++++++++++++++++++++++++Oz<DDDDD$jO++++++++++++++++++++++++++Oh*DDD",
"DDDDl#++++++++++++++++++++++++++Oz<DDDDD$jO++++++++++++++++++++++++++Oh*DDD",
"DDDDl#++++++++++++++++++++++++++Oz<DDDDD$jO++++++++++++++++++++++++++Oh*DDD",
"DDDDl#++++++++++++++++++++++++++Oz<DDDDD$jO++++++++++++++++++++++++++Oh*DDD",
"DDDDl#++++++++++++++++++++++++++Oz<DDDDD$jO++++++++++++++++++++++++++Oh*DDD",
"DDDDl#++++++++++++++++++++++++++Oz<DDDDD$jO++++++++++++++++++++++++++Oh*DDD",
"DDDDl#++++++++++++++++++++++++++Oz<DDDDD$jO++++++++++++++++++++++++++Oh*DDD",
"DDDDl#++++++++++++++++++++++++++Oz<DDDDD$jO++++++++++++++++++++++++++Oh*DDD",
"DDDDl#++++++++++++++++++++++++++Oz<DDDDD$jO++++++++++++++++++++++++++Oh*DDD",
"DDDDl#++++++++++++++++++++++++++Oz<DDDDD$jO++++++++++++++++++++++++++Oh*DDD"
};
