/* XPM */
static char *result[] = {
/* columns rows colors chars-per-pixel */
"75 75 221 2 ",
"   c black",
".  c #003400",
"X  c #003B00",
"o  c #323B00",
"O  c #540B00",
"+  c #6B0000",
"@  c #593200",
"#  c #6A2A00",
"$  c #004400",
"%  c #004B00",
"&  c #004B0F",
"*  c #005400",
"=  c #005C01",
"-  c #015D0E",
";  c #02510D",
":  c #004E10",
">  c #005511",
",  c #005E12",
"<  c #0B5E12",
"1  c #005A1C",
"2  c #145D12",
"3  c #1C5D12",
"4  c #1A5615",
"5  c #17510E",
"6  c #285908",
"7  c #235D12",
"8  c #2C5D12",
"9  c #375E12",
"0  c #3E5900",
"q  c #00650A",
"w  c #006213",
"e  c #0A6113",
"r  c #006C14",
"t  c #00621B",
"y  c #07691A",
"u  c #1D6214",
"i  c #176714",
"p  c #007416",
"a  c #007A17",
"s  c #007E18",
"d  c #00751B",
"f  c #1B7C18",
"g  c #007400",
"h  c #216013",
"j  c #227016",
"k  c #005B27",
"l  c #006424",
"z  c #026727",
"x  c #166626",
"c  c #0E7029",
"v  c #24662A",
"b  c #256528",
"n  c #386A3C",
"m  c #326F38",
"M  c #495C14",
"N  c #565A13",
"B  c #4E5907",
"V  c #645606",
"C  c #77540B",
"Z  c #6E5A14",
"A  c #775819",
"S  c #634400",
"D  c #616614",
"F  c #6F5B24",
"G  c #406126",
"H  c #3D6D41",
"J  c #47734A",
"K  c #4D7650",
"L  c #9A1E00",
"P  c #B11D00",
"I  c #AA3C00",
"U  c #B52C00",
"Y  c #C50000",
"T  c #DB0500",
"R  c #D31D00",
"E  c #D61A0D",
"W  c #EC0000",
"Q  c #E40000",
"!  c #F00000",
"~  c #FE0000",
"^  c #FF010F",
"/  c #FE0C0B",
"(  c #F81707",
")  c #FF0A19",
"_  c #E41500",
"`  c #DB2500",
"'  c #CA3A0D",
"]  c #D73912",
"[  c #D42E0D",
"{  c #E42804",
"}  c #F62A11",
"|  c #E53411",
" . c #F43516",
".. c #ED2B1A",
"X. c #FF1922",
"o. c #DD3D24",
"O. c #FB2725",
"+. c #F3372E",
"@. c #85520E",
"#. c #835312",
"$. c #985111",
"%. c #954E0A",
"&. c #A54807",
"*. c #B7450D",
"=. c #A65606",
"-. c #AC4B18",
";. c #B84515",
":. c #957000",
">. c #B87A09",
",. c #905025",
"<. c #A05325",
"1. c #B97A27",
"2. c #D95600",
"3. c #CC4A14",
"4. c #E64F11",
"5. c #C96500",
"6. c #CC6C1A",
"7. c #C6731D",
"8. c #CA4525",
"9. c #F0432C",
"0. c #CF692A",
"q. c #FF3645",
"w. c #BC6056",
"e. c #F7534E",
"r. c #FF4456",
"t. c #FF595B",
"y. c #F6524F",
"u. c #FF5A6A",
"i. c #D07568",
"p. c #FF6E73",
"a. c #FE787A",
"s. c #FF686A",
"d. c #D34C4E",
"f. c #008419",
"g. c #018C1A",
"h. c #178419",
"j. c #00931B",
"k. c #009C1E",
"l. c #1B971B",
"z. c #008100",
"x. c #25961B",
"c. c #00A800",
"v. c #00A41F",
"b. c #01AA1E",
"n. c #08A519",
"m. c #15A91F",
"M. c #1BA81F",
"N. c #13A31F",
"B. c #24A61F",
"V. c #27A71F",
"C. c #3AA51D",
"Z. c #0E8821",
"A. c #2E932A",
"S. c #00A621",
"D. c #00AA20",
"F. c #0CA920",
"G. c #00AE29",
"H. c #14A920",
"J. c #1AA920",
"K. c #14A121",
"L. c #00B122",
"P. c #00B02D",
"I. c #00A730",
"U. c #00B234",
"Y. c #10B328",
"T. c #26A720",
"R. c #22A920",
"E. c #2CA826",
"W. c #39A623",
"Q. c #479D07",
"!. c #689514",
"~. c #46A21A",
"^. c #5A9C20",
"/. c #799C28",
"(. c #4CA420",
"). c #65A32E",
"_. c #5E8161",
"`. c #69886A",
"'. c #7A937C",
"]. c #708D72",
"[. c #828B00",
"{. c #948900",
"}. c #93901B",
"|. c #A9820B",
" X c #A8892C",
".X c #BB9762",
"XX c #7F9681",
"oX c #879C88",
"OX c #8EA18E",
"+X c #96A897",
"@X c #A4B4A5",
"#X c #ABBDAD",
"$X c #FD8C8D",
"%X c #FF8284",
"&X c #FF9394",
"*X c #FB9C9A",
"=X c #F79091",
"-X c #F6A19F",
";X c #FF9EA1",
":X c #FDABAB",
">X c #FDA6A5",
",X c #FCB6B5",
"<X c #FEB0B1",
"1X c #B8C4B9",
"2X c #AFC0B0",
"3X c #CAD3CB",
"4X c #D1D8D1",
"5X c #C2CCC2",
"6X c #FDC3C3",
"7X c #FECACA",
"8X c #FED2D2",
"9X c #FEDBDC",
"0X c #FFD2D8",
"qX c #FFCED1",
"wX c #DDE2DD",
"eX c #E5EAE6",
"rX c #E9EEE9",
"tX c #FEFEFE",
"yX c #F7F5F3",
"uX c #F7EAE9",
"iX c None",
/* pixels */
"iXiXiXiXiXiXiXiXiXiXiXiXiXiXiXiXiXiXiXiXiXiXiXiXiXiXiXiXiXiXiXiXiXiXiXiXh iXiXiXiXiXiXiXiXiXiXiXiXiXiXiXiXiXiXiXiXiXiXiXiXiXiXiXiXiXiXiXiXiXiXiXiXiXiX",
"iXiXiXiXiXiXiXiXiXiXiXiXiXiXiXiXiXiXiXiXiXiXiXiXiXiXiXiXiXiXiXiXiXiXiXiXe w iXiXiXiXiXiXiXiXiXiXiXiXiXiXiXiXiXiXiXiXiXiXiXiXiXiXiXiXiXiXiXiXiXiXiXiXiX",
"iXiXiXiXiXiXiXiXiXiXiXiXiXiXiXiXiXiXiXiXiXiXiXiXiXiXiXiXiXiXiXiXiXiXiXq 3.$.r , 2 iXiXiXiXiXiXiXiXiXiXiXiXiXiXiXiXiXiXiXiXiXiXiXiXiXiXiXiXiXiXiXiXiXiX",
"iXiXiXiXiXiXiXiXiXiXiXiXiXiXiXiXiXiXiXiXiXiXiXiXiXiXiXiXiXiXiXiXh w A | ^ ^ ] D w iXiXiXiXiXiXiXiXiXiXiXiXiXiXiXiXiXiXiXiXiXiXiXiXiXiXiXiXiXiXiXiXiXiX",
"iXiXiXiXiXiXiXiXiXiXiXiXiXiXiXiXiXiXiXiXiXiXiXiXiXiXiXiXiXiXiXiXiXiXZ / / ^ } 9 iXiXiXiXiXiXiXiXiXiXiXiXiXiXiXiXiXiXiXiXiXiXiXiXiXiXiXiXiXiXiXiXiXiXiX",
"iXiXiXiXiXiXiXiXiXiXiXiXiXiXiXiXiXiXiXiXiXiXiXiXiXiXiXiXiXiXiXiXiXiXr | / ( } e iXiXiXiXiXiXiXiXiXiXiXiXiXiXiXiXiXiXiXiXiXiXiXiXiXiXiXiXiXiXiXiXiXiXiX",
"iXiXiXiXiXiXiXiXiXiXiXiXiXiXiXiXiXiXiXiXiXiXiXiXiXiXiXiXiXiXiXiXiXiX, $.N 9 $.M iXiXiXiXiXiXiXiXiXiXiXiXiXiXiXiXiXiXiXiXiXiXiXiXiXiXiXiXiXiXiXiXiXiXiX",
"iXiXiXiXiXiXiXiXiXiXiXiXiXiXiXiXiXiXiXiXiXiXiXiXiXiXiXiXiXiXiXiXiXiX< w , w w w iXiXiXiXiXiXiXiXiXiXiXiXiXiXiXiXiXiXiXiXiXiXiXiXiXiXiXiXiXiXiXiXiXiXiX",
"iXiXiXiXiXiXiXiXiXiXiXiXiXiXiXiXiXiXiXiXiXiXiXiXiXiXiXiXiXiXiXiXiXiXw h 2 2 7 w iXiXiXiXiXiXiXiXiXiXiXiXiXiXiXiXiXiXiXiXiXiXiXiXiXiXiXiXiXiXiXiXiXiXiX",
"iXiXiXiXiXiXiXiXiXiXiXiXiXiXiXiXiXiXiXiXiXiXiXiXiXiXiXiXiXiXiXiXiXiXw > j.j.> e 7 8 h iXiXiXiXiXiXiXiXiXiXiXiXiXiXiXiXiXiXiXiXiXiXiXiXiXiXiXiXiXiXiXiX",
"iXiXiXiXiXiXiXiXiXiXiXiXiXiXiXiXiXiXiXiXiXiXiXiXiXiXiXiXiXiXiXiXiXw > f.D.D.p ; z z iXiXiXiXiXiXiXiXiXiXiXiXiXiXiXiXiXiXiXiXiXiXiXiXiXiXiXiXiXiXiXiXiX",
"iXiXiXiXiXiXiXiXiXiXiXiXiXiXiXiXiXiXiXiXiXiXiXiXiXiXiXiXiXiXiXiXw > g.D.D.N.n.z P ~ iXiXiXiXiXiXiXiXiXiXiXiXiXiXiXiXiXiXiXiXiXiXiXiXiXiXiXiXiXiXiXiXiX",
"iXiXiXiXiXiXiXiXiXiXiXiXiXiXiXiXiXiXiXiXiXiXiXiXiXiXiXiXiXiXw w , g.L.D.D.J.U.5.$X9X&XiXiXiXiXiXiXiXiXiXiXiXiXiXiXiXiXiXiXiXiXiXiXiXiXiXiXiXiXiXiXiXiX",
"iXiXiXiXiXiXiXiXiXiXiXiXiXiXiXiXiXiXiXiXiXiXiXiXiXiXiXiXiXw , , , p a D.J.D./.~ a.tX6X~ iXiXiXiXiXiXiXiXiXiXiXiXiXiXiXiXiXiXiXiXiXiXiXiXiXiXiXiXiXiXiX",
"iXiXiXiXiXiXiXiXiXiXiXiXiXiXiXiXiXiXiXiXiXiXiXiXiXiXiXiXiXiXiXiX, > r D.F.D.x.E ~ ~ ~ Z w iXiXiXiXiXiXiXiXiXiXiXiXiXiXiXiXiXiXiXiXiXiXiXiXiXiXiXiXiXiX",
"iXiXiXiXiXiXiXiXiXiXiXiXiXiXiXiXiXiXiXiXiXiXiXiXiXiXiXiXiXiXiXw , , k.D.S.H.D.l.1.6.Z , u w w iXiXiXiXiXiXiXiXiXiXiXiXiXiXiXiXiXiXiXiXiXiXiXiXiXiXiXiX",
"iXiXiXiXiXiXiXiXiXiXiXiXiXiXiXiXiXiXiXiXiXiXiXiXiXiXiXiXiXw w , , j.D.S.D.D.H.D.L.L.D.i , w w iXiXiXiXiXiXiXiXiXiXiXiXiXiXiXiXiXiXiXiXiXiXiXiXiXiXiXiX",
"iXiXiXiXiXiXiXiXiXiXiXiXiXiXiXiXiXiXiXiXiXiXiXiXiXiXiXiXw w < , j.D.D.D.D.D.D.F.T.R.J.g.> w iXiXiXiXiXiXiXiXiXiXiXiXiXiXiXiXiXiXiXiXiXiXiXiXiXiXiXiXiX",
"iXiXiXiXiXiXiXiXiXiXiXiXiXiXiXiXiXiXiXiXiXiXiXiXiXiXw r e 4 y K.H.D.D.D.D.D.S.b.D.D.D.g.> w w iXiXiXiXiXiXiXiXiXiXiXiXiXiXiXiXiXiXiXiXiXiXiXiXiXiXiXiX",
"iXiXiXiXiXiXiXiXiXiXiXiXiXiXiXiXiXiXiXiXiXiXiXiXiXw , u , r Q.D.D.m.D.b.S.D.D.D.D.D.D.g.> , w w w iXiXiXiXiXiXiXiXiXiXiXiXiXiXiXiXiXiXiXiXiXiXiXiXiXiX",
"iXiXiXiXiXiXiXiXiXiXiXiXiXiXiXiXiXiXiXiXiXiXiXiXiXiXiXiXe 3.+.` ~.D.H.D.D.b.D.D.D.D.D.L.g.> w w iXiXiXiXiXiXiXiXiXiXiXiXiXiXiXiXiXiXiXiXiXiXiXiXiXiXiX",
"iXiXiXiXiXiXiXiXiXiXiXiXiXiXiXiXiXiXiXiXiXiXiXiXiXiX7 z R p.tX9X2.D.F.F.D.S.D.S.D.g.7 f j 2 w iXiXiXiXiXiXiXiXiXiXiXiXiXiXiXiXiXiXiXiXiXiXiXiXiXiXiXiX",
"iXiXiXiXiXiXiXiXiXiXiXiXiXiXiXiXiXiXiXiXiXiXiXiXiXiXw w ( ~ *X:X_ S.F.F.D.D.D.D.D.m.f.k l , 2 , iXiXiXiXiXiXiXiXiXiXiXiXiXiXiXiXiXiXiXiXiXiXiXiXiXiXiX",
"iXiXiXiXiXiXiXiXiXiXiXiXiXiXiXiXiXiXiXiXiXiXiXiXiXiXiXw C ( ~ ! ^.D.H.D.D.D.b.D.M.S.=.Q Y 6 w i w w iXiXiXiXiXiXiXiXiXiXiXiXiXiXiXiXiXiXiXiXiXiXiXiXiX",
"iXiXiXiXiXiXiXiXiXiXiXiXiXiXiXiXiXiXiXiXiXiXiXiXiXiX, 2 w M ,.A.F.J.D.D.D.b.D.M.G.{.r.uXqXo.= , < w iXiXiXiXiXiXiXiXiXiXiXiXiXiXiXiXiXiXiXiXiXiXiXiXiX",
"iXiXiXiXiXiXiXiXiXiXiXiXiXiXiXiXiXiXiXiXiXiXiXiXiXw w , 3 > f.D.J.S.S.D.D.S.F.J.D.4.~ ,X8XO.B w i , iXiXiXiXiXiXiXiXiXiXiXiXiXiXiXiXiXiXiXiXiXiXiXiXiX",
"iXiXiXiXiXiXiXiXiXiXiXiXiXiXiXiXiXiXiXiXiXiXiXw w , , , , h.R.H.S.S.D.D.D.b.D.J.G.}.~ ~ ~ &.w 7 , w w , iXiXiXiXiXiXiXiXiXiXiXiXiXiXiXiXiXiXiXiXiXiXiX",
"iXiXiXiXiXiXiXiXiXiXiXiXiXiXiXiXiXiXiXiXiX, w w , , w > f.L.D.D.D.D.D.D.S.D.D.S.J.L.!.1.,.w e , , , w w w , , w iXiXiXiXiXiXiXiXiXiXiXiXiXiXiXiXiXiXiX",
"iXiXiXiXiXiXiXiXiXiXiXiXiXiXiXiXiXiXiXw w r , , , , , , p v.D.D.D.D.D.D.D.D.D.v.S.J.D.L.g.5 , w , , , , w r r iXiXiXiXiXiXiXiXiXiXiXiXiXiXiXiXiXiXiXiX",
"iXiXiXiXiXiXiXiXiXiXiXiXiXiXiXiXiXiXiX, , , , , , , , - > v.D.b.b.D.D.v.D.D.D.D.D.D.J.T.R.j., > , , , , iXiXiXiXiXiXiXiXiXiXiXiXiXiXiXiXiXiXiXiXiXiXiX",
"iXiXiXiXiXiXiXiXiXiXiXiXiXiXiXiXiXiXiXiXiXiXw , , < 7 3 x.l.D.D.D.D.D.D.S.D.D.D.b.D.D.D.D.L.v.a > , , , w iXiXiXiXiXiXiXiXiXiXiXiXiXiXiXiXiXiXiXiXiXiX",
"iXiXiXiXiXiXiXiXiXiXiXiXiXiXiXiXiXiXiXiXiXw , , < , d k.g k K.D.D.S.D.D.D.b.D.D.D.S.D.D.D.k.j.k.f., , w w w w w iXiXiXiXiXiXiXiXiXiXiXiXiXiXiXiXiXiXiX",
"iXiXiXiXiXiXiXiXiXiXiXiXiXiXiXiXiXiXiX, w , , < , j >.0.d.:.b.m.D.D.D.D.S.D.D.D.D.D.S.D.k.> > , r , , , , , , w w r w iXiXiXiXiXiXiXiXiXiXiXiXiXiXiXiX",
"iXiXiXiXiXiXiXiXiXiXiXiXiXiXiXiXiXw w w , , , 7 w &.~ qXtX7X!.Y.M.S.D.D.b.D.b.S.D.b.D.D.v.f., > > w , w , , , , w w iXiXiXiXiXiXiXiXiXiXiXiXiXiXiXiXiX",
"iXiXiXiXiXiXiXiXiXiXiXiXiXiXiXiX, w , , w , , 7 w ' ^ e.,X<X!.b.M.D.D.D.D.D.D.D.D.S.S.b.b.D.v.s , > > > , , , w w iXiXiXiXiXiXiXiXiXiXiXiXiXiXiXiXiXiX",
"iXiXiXiXiXiXiXiXiXiXiXiXiXiXw r w w , , , , , 7 , -.~ ~ ~ W W.D.m.D.b.S.D.D.S.D.D.D.D.D.D.D.D.D.k.j.j.s , > , , w , w iXiXiXiXiXiXiXiXiXiXiXiXiXiXiXiX",
"iXiXiXiXiXiXiXiXiXiXiXiXiXiXiXiXiX, w , , , , 2 , 7 *.[ 0.).b.J.S.D.D.D.b.R.T.T.B.b.D.D.D.D.S.D.b.D.D.D.D.j.w , w w r iXiXiXiXiXiXiXiXiXiXiXiXiXiXiXiX",
"iXiXiXiXiXiXiXiXiXiXiXiXiXiXiXiXiXw , , , , , , < , > d D.D.H.D.D.D.D.F.K.L.L.D.G.K.F.D.S.D.D.b.D.F.B.V.l.j.p , w , , , w , , iXiXiXiXiXiXiXiXiXiXiXiX",
"iXiXiXiXiXiXiXiXiXiXiXiXiXiXiXw w , , , , , w w > y x.R.T.H.D.D.D.D.F.S.D.{.5.7.}.G.b.S.b.D.D.S.F.b.G.U.I.4 & t , , , w w w w w r iXiXiXiXiXiXiXiXiXiX",
"iXiXiXiXiXiXiXiXiXiXiXiXiX, w w , , , , , , , > a D.D.S.D.D.S.b.D.n.F.G.5.q.a.~ ) >.D.R.D.D.D.F.b.E.{.:.[.c.s > , , , , w , , , w iXiXiXiXiXiXiXiXiXiX",
"iXiXiXiXiXiXiXiXiXiXiXw r r , , , , w , , , , w b.S.r f.D.D.D.D.D.R.G. X~ <X>X~ ~  .C.b.F.D.F.m.G.5.u.9X0X.Xc.j , , , , , , , w , iXiXiXiXiXiXiXiXiXiX",
"iXiXiXiXiXiXiXiXiXiXiXiXiXw , w < 2 4 < , , , w a , , v.D.D.S.D.D.T.b. X~ *XtX7X<X( ~.D.H.D.H.D.W.( t.6XtX=Xq c - , , , , , , w iXiXiXiXiXiXiXiXiXiXiX",
"iXiXiXiXiXiXiXiXiXiXiXiXiXiX, e - l z z 3 , , , > > j.D.D.S.b.D.D.H.D.C.4.~ >X6Xr.5.G.R.v.D.H.D.V.} ~ ~ ! R > 7 , , , , , , , iXiXiXiXiXiXiXiXiXiXiXiX",
"iXiXiXiXiXiXiXiXiXiXiXiXiX, e w t S + o q 2 , , , , v.D.D.D.D.D.D.D.J.D.~.7.{ T |.G.b.F.D.D.D.M.G.|.} 9.4.^.p 2 , , , , , , , , , w , r iXiXiXiXiXiXiX",
"iXiXiXiXiXiXiXiXiXiXiXiX, e < t R p.6X>X@., 2 , , , r v.D.D.D.D.D.D.S.J.D.D.P.U.L.b.F.D.D.b.D.D.F.D.E.~.D.L.K., , , , , , , , w w w w , iXiXiXiXiXiXiX",
"iXiXiXiXiXiXiXiXiXiXw w , 3 w A ~ $XyXtXi.* b , , w > p D.D.D.D.D.D.b.D.H.T.m.M.J.F.D.S.S.D.D.D.D.J.D.b.H.M.L.j.> , , , , , , , , , w iXiXiXiXiXiXiXiX",
"iXiXiXiXiXiXiX, w , w , , 3 w C ) ~ ~ t.;.w 7 - , , w > j.j.j.D.D.D.S.D.D.D.F.D.D.S.b.D.D.D.D.D.D.b.H.H.g.f.v.D.j., , , , , , , , w w iXiXiXiXiXiXiXiX",
"iXiXiXiXiXiXw r w w , , , < , , { X.^ W B , 2 , , , , , , & f.D.b.D.D.D.D.D.D.D.D.D.D.D.D.D.v.D.D.D.D.S., : w s g., , , , , , , , , w r iXiXiXiXiXiXiX",
"iXiXiXiXiXiXiXw , , , , , , 2 , 8 C A b , 2 , , , , , , , , v.D.S.D.D.D.D.D.D.S.D.D.S.D.D.D.S.b.D.D.S.D.j.w , > > , , , , , , , , , w w iXiXiXiXiXiXiX",
"iXiXiXiXiXiXiXiXiXiXw w , , , < , w , , 4 , , , , , , , , > j.D.b.D.D.D.v.D.D.D.D.D.D.D.D.D.D.b.D.D.D.D.L.s > e , , , , , , , , , w , iXiXiXiXiXiXiXiX",
"iXiXiXiXiXiXiXiXiXiX, , , , , , < 3 3 < w , , , , , , , , , , g.p j.D.D.D.D.D.b.v.D.D.b.D.b.g.a p p g.k.h.7 , < 7 , , , , , , , , w , w iXw w , iXiXiX",
"iXiXiXiXiXiXiXiXw w w , , , , , , , , , - , , , , , , , , , 2 2 5 g.D.D.D.D.D.D.D.D.S.D.v.r > > > , > 4 > t = , w < , , , , , , , , , w w w r , iXiXiX",
"iXiXiXiXiXiXw w w , , , , , , , , , , , , , , , , , , , , 2 , z k l.S.S.D.b.D.D.D.D.S.b.p > w , , w h w C [ 9.{ ;., < , , , , , , , , , , , w iXiXiXiX",
"iXiX, , w w w , , , , , , , , , , , , , , , , , , , , , < w B # O g G.F.D.b.D.S.D.D.D.D.w , w , , 3 w F ~ %Xs.~ ~ &.w 7 , , , , , , 2 3 x 7 , w w , , ",
"iXw r r w , , , , , , , 2 8 7 3 , , , , , , , , , , , 7 w %.O.:X,Xw.g Y.j.p v.D.D.j.j.D.r , , , , 7 - ] ~ 9X=X~ y.{ w 2 , , , , , 3 t = * , 2 w w r w ",
"iXiXw w , , , , , , , 3 w t w w 2 , , , , , , , , , , 3 t ` +.0XtX6X@ I.f & w j.D.w & g.w , , , , 7 w 8.~ :XtX9X&XT l 7 , , , , 7 , V 8.y.&.- u , iXiX",
"iXiXiXiX, , , , , , 2 w V I *.C w , , , , , , , , , < 2 w ] ~ ~ t.e.6 , 2 , , > r w , , , , , , , 2 , M ..^ %Xa.~ #.w 3 , , , 2 , G W &XtX7XL z 7 iXiX",
"w r w w w , , , , 3 w &.) p.X.X.*.w 7 , , , , , , , , 7 w &.^ X.~ I t 3 , , w , , , , , , , , , , , 2 w 8 I P P M , 2 , , , , 7 w $.~ ~ *X%XU t 7 r iX",
"iX, , , , , , , 3 , F ~ &X>X~ ~ / B , 2 , , , , , , , , , , C @.F t < , , , , , , , , , , , , , , , , 4 , , z z t 3 , , , , , < < , ' ~ ~ T 1 , < , iX",
"iXiXiXiXw w , , 7 w <.~ =XtX,X:XO.C t 2 , , , , , , , , , 2 w w w 2 , , , , , , , , , , , , , , , , , , 2 7 7 7 2 , , , , , , , < , w $.<.z , 2 , w w ",
"iXiX, w , w , , 2 , 8 ..~ :X9X$XW l , < , , , , , , , , , , 2 7 2 , , , , , , , , , , , , , , , , , , , , , , , , , , , , , , , , < 2 w w w 2 , , r iX",
"iXiX, r , w , , , 2 , N ] ! ! Y N , 2 , , , , , , , , , , , , , , , , , , , , , , , , , , , , , , , , , , , , , , , , , , , , , , , , 7 7 < w w w w iX",
"iXiXiXw w w w w w , 3 , , b x z , 2 , , , , , , , , , , , , , , , , w , , , , , , , , , , , , w , , , , , , , , , , , , , , , , , , , , , w , iXiXiXiX",
"iXiXiXiXiXw w , , , , 3 7 , , 7 3 , , , , , , , , , , , , , , , w w , - , , , w w w w , w w , , w w , , , , , , , , , , , , , , , , w w w , iXiXiXiXiX",
"iXiXiXiXiXiXiXiXiXw , , , e e w w w , , w , w w w w , , , w , w , iXiXw w , w iXiXiX, w w , iXiXiXw w w w w , , e w w , , , w w w , , w , iXiXiXiXiXiX",
"iXiXiXiXiXiXiXiXiXw w w , , w iXw w w w w w w iXiXw w w w w w w iXiXiXw w , , iXiXiXiXiXiXiXiXiXiXiXiX, w iXiXiXiXiXw , w w w w iXiXiXiXiXiXiXiXiXiXiX",
"iXiXiXiXiXiXiXiXiXiXiXiXiXiXiXiXiXiXw w , iXiXiXiXiXiXw w w iXiXiXiXiXw w - w iXiXiXiXiXiXiXiXiXiXiXiXiXiXiXiXiXiXiXiXiXiXiXw w iXiXiXiXiXiXiXiXiXiXiX",
"iXiXiXiXiXiXiXiXiXiXiXiXiXiXiXiXiXiXiXiXiXiXiXiXiXiXiXiXiXiXiXiXiXiXiX- w w - iXiXiXiXiXiXiXiXiXiXiXiXiXiXiXiXiXiXiXiXiXiXiXiXiXiXiXiXiXiXiXiXiXiXiXiX",
"iXiXiXiXiXiXiXiXiXiXiXiXiXiXiXiXiXiXiXiXiXiXiXiXiXiXiXiXiXiXiXiXiXiXiXm v v v iXiXiXiXiXiXiXiXiXiXiXiXiXiXiXiXiXiXiXiXiXiXiXiXiXiXiXiXiXiXiXiXiXiXiXiX",
"iXiXiXiXiXiXiXiXiXiXiXiXiXiXiXiXiXiXiXiXiXiXiXiXiXiXiXiXiXiXiXiXiXiXiX. X X $ . iXiXiXiXiXiX      $ x iXiXiXiXiXiXiXiXiXiXiXiXiXiXiXiXiXiXiXiXiXiXiXiX",
"iXiXiXiXiXiXiXiXiXiXiXiXiXiXiXiXiXiXiXiXiXiXiXiX= J '.OXOX+X@X#X1X5X3X5X4X4X4XwXrXrXrXrXrXrXrXrXeX#X% iXiXiXiXiXiXiXiXiXiXiXiXiXiXiXiXiXiXiXiXiXiXiXiX",
"iXiXiXiXiXiXiXiXiXiXiXiXiXiXiXiXiXiXiXiXiXiXiXiXiX3XtXyXtXtXtXtXtXtXtXtXrXyXtXyXeXeXeXeXeXeXwX3X1X`.iXiXiXiXiXiXiXiXiXiXiXiXiXiXiXiXiXiXiXiXiXiXiXiXiX",
"iXiXiXiXiXiXiXiXiXiXiXiXiXiXiXiXiXiXiXiXiXiXiXiXiXK `.= oX@X+XJ = oX].* $ = `.= % % * * * - - * . * iXiXiXiXiXiXiXiXiXiXiXiXiXiXiXiXiXiXiXiXiXiXiXiXiX",
"iXiXiXiXiXiXiXiXiXiXiXiXiXiXiXiXiXiXiXiXiXiXiXiXiXiX* = = K K '.OXoXoX+X@X@X@X#X#X#X#X2X1X1X#X+Xm y iXiXiXiXiXiXiXiXiXiXiXiXiXiXiXiXiXiXiXiXiXiXiXiXiX",
"iXiXiXiXiXiXiXiXiXiXiXiXiXiXiXiXiXiXiXiXiXiXiXiXiXiXv y v H J H n J n m b v v 2 = * iXiXiXiXX % = iXiXiXiXiXiXiXiXiXiXiXiXiXiXiXiXiXiXiXiXiXiXiXiXiXiX"
};
