/* XPM */
static char *_37334afabed4ca5849a174f0de06a3cnQPj9E6ylGV4t8yn[] = {
/* columns rows colors chars-per-pixel */
"75 75 140 2 ",
"   c None",
".  c #DF0000",
"X  c #E20303",
"o  c #EC0404",
"O  c #E20B0B",
"+  c #EC0E0E",
"@  c #F20404",
"#  c #F90303",
"$  c #F30D0D",
"%  c #FD0808",
"&  c #E21414",
"*  c #ED1414",
"=  c #E31B1B",
"-  c #ED1C1C",
";  c #F31212",
":  c #F41E1E",
">  c #E22323",
",  c #E92323",
"<  c #E32C2C",
"1  c #E92C2C",
"2  c #F32222",
"3  c #F12C2C",
"4  c #F82D2D",
"5  c #E33434",
"6  c #E93434",
"7  c #E33B3B",
"8  c #E83B3B",
"9  c #F43636",
"0  c #F83434",
"q  c #E44444",
"w  c #E54B4B",
"e  c #E55353",
"r  c #E55C5C",
"t  c #E66464",
"y  c #E76B6B",
"u  c #E77272",
"i  c #E87474",
"p  c #E97C7C",
"a  c #E98282",
"s  c #EA8C8C",
"d  c #EB9393",
"f  c #EC9A9A",
"g  c #EC9B9B",
"h  c #EC9C9C",
"j  c #EC9D9D",
"k  c #ED9E9E",
"l  c #EC9A9A",
"z  c #EDA0A0",
"x  c #EDA2A2",
"c  c #EDA4A4",
"v  c #EEA4A4",
"b  c #EEA6A6",
"n  c #EEA7A7",
"m  c #EDA3A3",
"M  c #EFA8A8",
"N  c #EFA9A9",
"B  c #EEAAAA",
"V  c #EEABAB",
"C  c #EFACAC",
"Z  c #EFADAD",
"A  c #EFAEAE",
"S  c #EFABAB",
"D  c #F0AFAF",
"F  c #EFB2B2",
"G  c #EFB1B1",
"H  c #F0B2B2",
"J  c #F0B4B4",
"K  c #F0B5B5",
"L  c #F0B5B5",
"P  c #F1BBBB",
"I  c #F2BEBE",
"U  c #F1BBBB",
"Y  c #F2C0C0",
"T  c #F2C1C1",
"R  c #F3C1C1",
"E  c #F2C2C2",
"W  c #F2C3C3",
"Q  c #F3C3C3",
"!  c #F2C4C4",
"~  c #F3C6C6",
"^  c #F3C4C4",
"/  c #F3C8C8",
"(  c #F3CACA",
")  c #F4C9C9",
"_  c #F5CDCD",
"`  c #F4CFCF",
"'  c #F4CCCC",
"]  c #F5D3D3",
"[  c #F6D4D4",
"{  c #F6D5D5",
"}  c #F6D6D6",
"|  c #F6D3D3",
" . c #F6D8D8",
".. c #F7D8D8",
"X. c #F7DBDB",
"o. c #F7DCDC",
"O. c #F7DADA",
"+. c #F8DCDC",
"@. c #F8DEDE",
"#. c #F8DEDE",
"$. c #F8E0E0",
"%. c #F8E1E1",
"&. c #F9E3E3",
"*. c #F9E4E4",
"=. c #F9E5E5",
"-. c #F9E6E6",
";. c #F9E7E7",
":. c #F9E4E4",
">. c #FAE8E8",
",. c #FAEAEA",
"<. c #FBEAEA",
"1. c #FBEBEB",
"2. c #FAECEC",
"3. c #FBEDED",
"4. c #FBEEEE",
"5. c #FBEFEF",
"6. c #FCEFEF",
"7. c #FAEBEB",
"8. c #FCF0F0",
"9. c #FCF1F1",
"0. c #FCF2F2",
"q. c #FCF3F3",
"w. c #FDF4F4",
"e. c #FDF5F5",
"r. c #FDF6F6",
"t. c #FCF3F3",
"y. c #FDF8F8",
"u. c #FDF9F9",
"i. c #FEF8F8",
"p. c #FEF9F9",
"a. c #FEFAFA",
"s. c #FEFBFB",
"d. c #FEFCFC",
"f. c #FFFCFC",
"g. c #FEFDFD",
"h. c #FFFDFD",
"j. c #FEFEFE",
"k. c #FFFEFE",
"l. c white",
"z. c #FFFEFE",
/* pixels */
"                                                            o O X O O X X X X X X X O X X X X                                                         ",
"                                                X O X o @ @ @ @ @ @ o o o O X X o o o @ @ @ % @ @ o o X X O X                                         ",
"                                            X o @ @ X O X X X X X O X X X O O X O X X X O X O X X O O X X o % X X                                     ",
"                                        X @ @ X O X X X X X O X X X X X X X X X X . O X X X X X X X X X X X X O % X                                   ",
"                                      O @ X X X X X O X X X O X X X O X X X X X X X X X O X X O X X X X X O X X X o @ X                               ",
"                                    o o X O X X X X X X O X X X O X X X X O O X O X X O X X X X X O X O X X X X X X O @ o X                           ",
"                                  o O X X O X O O X X X X X O X X X X X X X X X X X X X X X X X X O X X X X X O X O X X X % O                         ",
"                                X o X X X X X X X X O X X X X X X X O X X O X X X O X X O X X O X X X X X O X X X X O X X X @ X                       ",
"                              X @ X X O X X O X X O X X X O X X O X X O X X X X X X X X X O X X X O X X O X X O X X X X X X X o o                     ",
"                              o O X X X X X X X X X X X X X X O X X X X X O O X X O O X X X X X X X X O X X X X X O X O O X O . X @ o                 ",
"                            X @ X X X X O X X X X X X O X X X X X X X X X X X X X X X X O X X O X X X X X X X X X O X X O X X O X X @                 ",
"                            X O X O X X X X O X X O X X X O X X O X X O X X O X X O X X X X X X O X X X O X X O X X X X X X X X O X X @               ",
"                            @ X X X O O X X X X X O X X O X X O X X X X X X O X X O X X O X X X X X O X X O X X X X X X X O X X X X X X O             ",
"                          X @ X X X . X X O X X X X X X X X X X X X O X X O X X X X X X X X X X X X X X X X X X X X O X X X X X O X X O @ o           ",
"                          O o O X O O X X O X O X X O X X X X X X X X X X X X X X X X X X X O X X X X O O X X O O X O X X O O X X X X X X @           ",
"                          X X X X X X X X X X X X X X X O O O & & = & & & = & & & & O O X X X X X X O . X X X X X X X X X X X X X O X X O X X         ",
"                          X X X X X X X X X X X & = = = & & X X X X X X X X X X X X & & = = = & & X X X X X X X O X X X X X X X X X X X X X @ X       ",
"                          X X X O X X X O = > = X X . X . . . X . X X < w q & X X . . X . X X X & = > & X X X X X X O X X O O X X O O X X O o X       ",
"                          o O X X O = < = . . X X X 7 t a g Z I / } &.1.0.0.*.X.Q G k a t q X X X . . & < & X X X O X X X O X X X X X X X O X @       ",
"                          @ X = < > X . . X w s J } 6.s.g.g.g.g.g.g.g.g.g.g.g.g.g.g.g.g.s.5.@.! z i > . . & < & X X X o @ o o @ X X O X X X X @ O     ",
"                        X o = X . X X t z ] 5.g.g.g.g.g.g.g.g.g.g.g.s.g.g.g.g.g.g.g.g.g.g.g.g.g.g.g.&.M e X X = O X o X     X X o o X X X X X @ X     ",
"                        @ & X X t z ] r.g.g.g.g.g.g.g.g.g.g.g.g.g.g.g.g.g.g.g.g.g.g.g.g.g.g.g.g.g.g.g.g.0.F e X O O @             X o O X X O o X     ",
"                      X O X 5 ~ r.g.g.g.g.g.g.g.g.g.g.g.g.g.g.g.g.g.g.s.g.g.g.g.g.g.g.g.g.g.g.g.g.g.g.g.g.g.q.b . = @ X             O o O X X @ X     ",
"                      o > X b g.g.g.g.g.g.g.g.g.g.g.g.g.g.g.g.g.g.g.g.g.g.g.g.g.g.g.g.g.g.g.g.g.g.g.g.g.g.g.g.s.7 X * O               X X X O @       ",
"                      X > X J g.s.g.g.g.g.g.g.g.g.g.g.g.g.g.g.s.r.6.1.1.5.0.r.g.g.g.g.g.g.g.g.s.g.g.g.g.g.g.g.s.r X - X                 @ X X o       ",
"                      X = X d g.g.g.g.g.g.g.g.g.g.r.@.! b d a y r r e e e t y p s b Q @.q.g.g.g.g.g.g.g.g.g.g.0.< X ; X                 X X @ X       ",
"                      o - X u g.g.g.g.g.g.r.} Z a w > X X X . X X X . X . X . . . X X < e a Z } r.g.g.g.g.g.g.1.X O $                   X o X         ",
"                        ; X q s.g.g.r.` d w X . X X X . . . X 5 e r t y t t w > X . X . X X . X e s Q 1.g.g.g.o.. > X                 X & O X         ",
"                        o & X d ! g w X X . X . . 7 p M Q X.1.6.r.s.s.g.s.s.r.5.*.} I k y > X . X . X O y b Q i X * X             X $ - X X = @ X     ",
"                        X X O X . X X . . X i J X.0.g.g.g.g.g.g.g.g.g.g.g.g.g.g.g.g.g.g.g.5.] D t X . X X X . . & @ X           X + X X 5 = . X @ X   ",
"                        X o X = & > X t P 1.g.g.g.g.g.g.g.g.g.g.g.g.g.g.g.g.g.g.g.g.g.g.g.g.g.g.g.*.M X X = = & X @ X         X + X = ) q.q.Z X = % X ",
"                        @ O X X = X t g.g.g.g.g.g.g.6.s.g.g.g.g.g.g.g.g.g.g.g.g.g.g.g.6.r.g.g.g.g.g.g.! X > X X X o O         o > X I g.g.g.g.d X , X ",
"                      o o X X X > . J g.g.g.g.g.*.y X q } g.g.g.g.g.g.g.g.g.g.g.g.q.p X 5 Q g.g.g.g.g.s.< X & X X X X         o > X | g.g.g.g.M X > X ",
"                      X X O X X > X X.g.g.g.g.g.u . 5 X < s.g.g.g.g.g.g.g.g.g.g.g.k . 7 X . 1.g.g.g.g.s.r X & X X O @ O       X = X y q.g.g.&.5 X * X ",
"                    O @ X X X O & X *.g.g.g.g.g.p . X X w s.g.g.g.g.g.g.g.g.g.g.g.b . X X X *.g.g.g.g.g.a . = X X O X X         # = X q k d X X * @   ",
"                    X o X O X & X & q.g.g.g.g.g.&.u q t } g.g.g.g.g.g.g.g.g.g.g.g.0.s q e I g.s.g.g.g.g.c . > X X X X @         X o 2 o X X o : X     ",
"                    @ X O X X O X X 1.g.g.g.g.g.g.g.q.s.g.g.g.g.g.g.g.g.g.g.g.g.g.g.g.r.g.g.g.g.g.g.g.g.P X > X X X X @ X           X 1 7 7 = X       ",
"                  X o O X X X O = . *.g.s.r.5.1.1.r.g.g.g.g.g.q.g.g.g.g.g.g.g.g.g.g.g.g.r.1.5.q.r.g.g.g.o.X > X X O X X X                             ",
"                  O X X X X X X & . d z a y r r t t i d G } ] q @.g.g.g.g.P z q.} Z s u t r r t i a k I Q X O X X O X O @                             ",
"                X @ X X O X X X X < X X . . . . . . . X X > O . t 6.g.g.Q X X w > X . . . X . . X . X X > O X X X X X X o O                           ",
"                X o X X X X X < < . . X 5 t p s a i e X . . X w X q b d X X 7 X . . X e u p p i r > X . . < < X X X X X X o                           ",
"                @ X O X X > < X . r M } 1.r.s.s.g.s.6.@.I s X . X X X . X O . = d ! &.q.s.g.s.s.q.*.` M r X . < > X X X X @ O                         ",
"              X o X X = < X . p ] s.g.g.g.g.g.g.g.g.g.g.g.g.1.D 7 = & = = & z 5.g.g.g.g.g.g.g.g.g.g.g.g.r.` i X X < & X X O X                         ",
"              o X = > X X i } g.g.g.g.g.g.g.g.g.g.g.g.g.g.g.g.g.P . < > X z g.g.g.g.g.g.g.g.g.g.g.g.g.g.g.g.g.` e X X > = X @ X                       ",
"  X X     & + & O X . i } g.g.g.g.g.g.g.g.g.g.g.g.g.g.g.g.g.g.s.w . = = X w s.g.g.g.g.g.g.g.g.g.g.g.g.g.g.g.g.g.s.I e X X O & + O     X o             ",
"X @ @ @ @ @ X X X a } g.g.g.g.g.g.g.g.g.g.g.g.g.g.g.g.g.g.g.g.s . < . X 5 . z g.g.g.g.g.g.g.g.g.g.g.g.g.g.g.g.g.g.g.s.) i X . X o @ @ @ @ X           ",
"O o X O X X X s @.g.g.g.g.g.g.g.g.g.g.g.g.g.g.g.g.g.g.g.g.g.F X 7 . f d . 5 X ! g.g.g.g.g.g.g.g.g.g.g.g.g.g.g.g.g.g.g.g.g.&.d > X X O X o X           ",
"  @ & X r ] q.g.g.g.g.g.g.g.g.g.g.g.g.g.g.g.g.g.g.g.g.g.g.P . 5 . y g.g.t . < . ) g.g.g.g.g.g.g.g.g.g.g.g.g.g.g.g.g.g.g.g.g.g.r.I 5 X & @             ",
"  X ; X 7 / g.g.g.g.g.g.g.g.g.g.g.g.g.g.g.g.g.g.g.g.g.s.z X 5 . r r.g.g.0.e X < X M s.g.g.g.g.g.g.g.g.g.g.g.g.g.g.g.g.g.g.g.g.g.) > X $ X             ",
"    X ; X . i } g.g.g.g.g.g.g.g.g.g.g.g.g.g.g.g.g.g.} t . > . y q.g.g.g.g.5.y X > . t ` s.g.g.g.g.g.g.g.g.g.g.g.g.g.g.g.g.g.@.p X X + X               ",
"      X - 5 X X p I &.s.g.g.g.g.g.g.g.g.g.g.s.*.Q i X X X X d s.g.g.g.g.g.g.s.d . X X X i Q *.s.g.g.g.g.g.g.g.g.g.g.s.*.! s X X 5 & X                 ",
"        X o 5 = X X 7 i k Z I ) / ! Q F Z d i 7 . . X X r ) g.g.s.g.g.s.g.s.g.g.! r . X X X 7 i k Z P Q ) ! ! P H k p w X . O 5 X @                   ",
"          @ X = X . . . . . . X X X X X . . . . X X y J q.g.g.g.g.g.g.g.g.g.g.g.g.q.P y X X . . . X X X . . X . . . . . . X X X X o                   ",
"          O O X z b a t q X X . . . . . X O w i z ` r.g.g.s.g.s.H @.g.g...g q.g.s.g.g.q.] b i w X X . X . . . X X q y s b ` z X = o                   ",
"          X , X ) g.s.q.*.@.' ! Q P I ! ) X.1.s.g.g.g.g.g.g.g.s.i X r e X p r.g.g.g.g.g.g.g.r.1.} ) Q P P P ! ] X.*.r.g.g.g.X.. > o                   ",
"          X , X a g.g.g.g.g.g.g.g.g.g.g.g.g.g.g.g.g.g.g.g.g.g.g.g.o.d d &.g.g.g.g.g.g.g.g.g.g.g.g.g.g.g.g.g.g.g.g.g.g.g.g.g.` X > o                   ",
"          X $ X X 5.g.s.g.g.g.g.g.g.g.g.g.g.g.g.g.g.g.g.g.g.g.g.g.g.g.g.g.g.g.g.g.g.g.g.g.g.g.g.g.g.g.g.g.g.g.g.g.g.g.g.g.g.D X > X                   ",
"            @ > X ~ g.g.g.g.g.g.g.g.g.g.g.g.g.g.g.g.g.g.g.g.g.g.g.g.g.g.g.g.g.g.g.g.g.g.g.g.g.g.g.g.g.g.g.g.g.g.g.g.g.g.g.g.w X ; X                   ",
"            X , X s g.P i ) g.g.g.g.g.g.g.g.g.g.g.g.g.g.g.g.g.g.g.g.g.g.g.g.g.g.g.g.g.g.g.g.g.g.g.g.g.g.g.g.r.5.g.g.g.g.g.P X > @                     ",
"            X $ X q i . X X ! g.g.g.g.g.g.g.g.g.g.g.g.g.g.g.g.g.g.g.g.g.g.g.g.g.g.g.g.g.g.g.g.g.g.g.g.g.g.1.7 & b g.g.g.o.X X + X                     ",
"              X + X X = = O . ] g.g.g.g.g.g.g.g.g.g.g.g.g.g.g.g.g.g.g.g.g.g.g.g.g.g.g.g.g.g.g.g.g.g.g.g.g.M . > . t 5.&.= . = o                       ",
"                X + & X o & X X O.g.g.g.g.g.g.g.g.g.g.g.g.g.g.g.g.g.g.g.g.g.g.g.g.g.g.g.g.g.g.g.g.g.g.g.g.i X = < X 7 > X = @                         ",
"                  X @ o X X - . X ] g.g.g.g.g.g.g.g.g.g.g.g.g.g.g.g.g.g.g.g.g.g.g.g.g.g.g.g.g.g.g.g.g.g.O.X = X X > X X = @ X                         ",
"                    X       X - X . J g.g.g.g.g.g.q.g.g.g.g.g.g.g.g.g.g.g.g.g.g.g.g.g.g.g.g.g.g.g.g.g.s.t X = o X o & * o                             ",
"                              X : , X i @.g.g.g.J 7 p *.g.g.g.g.g.g.g.g.g.g.g.g.g.g.r.z i } g.g.g.g.s.a X > @ X   X o X                               ",
"                                X & 9 X X D s.Q . X X X } g.g.g.g.g.g.g.g.g.g.g.g.r.u X X X ) g.g.1.y . < @ O                                         ",
"                                    . 9 o X y = O < 8 X X } g.g.g.g.g.g.g.g.g.g.@.r . 7 8 X X _ ~ O . 6 o                                             ",
"                                      X > 0 X X = o X 1 X X *.g.g.g.g.s.g.g.g.I X X 5 @ X > X X X X 9 X                                               ",
"                                          X 5 : @ O   X 1 X e s.g.g.g.g.g.X.p X X 0 o X O o > X * 4 X                                                 ",
"                                                        o 5 . J g.g.g.&.g X . : , X       % @ 2 = X                                                   ",
"                                                        X * X e 5.` s = . @ 3 -           X X                                                         ",
"                                                          @ O X 7 X X o 2 >                                                                           ",
"                                                          o X O X o : >                                                                               ",
"                                                          o X @ : =                                                                                   ",
"                                                          X O X                                                                                       "
};
