/* XPM */
static char *result[] = {
/* columns rows colors chars-per-pixel */
"75 75 6 1 ",
"  c #B7FB78",
". c #B7FC78",
"X c #B8FB78",
"o c #B8FB79",
"O c #B8FC78",
"+ c #B8FC79",
/* pixels */
"+oXoooooooX+++++++++++++++++++++++++++o+++++++++++++o++OOOOOOOOOOOOOOOOOOOO",
"XXXXXXXXX XO+++o++o++o+o++o++o+o++o++oX+++o++o++o+o+XoOOOOOOOXOOOOOOOOOOOOO",
"XXXXXXXXXXXo++++++++++++++++++++++++++o+++++++++++++o+OOOOOOOXOOOOOOOOOOOOO",
"           XOOOXOOOOOOOXOOOOOOOOOOOOOO OOOOOOOOOOOOOXXO++++++++++++++++++++",
"            XXXXXOOXOOXXXXOXOXXOOOOXOOXOOXXXOOXOXXXX XO++++++o+++++++++++++",
"            XXXX OOOOOXXOXOOOX.OOOOOOO OOXX.OOOOXXXX XO++++++++++++++++++++",
"            XOXXXOOOOOXXOXOOOOOOOOOOOO OOXXOOOOOOXXX XO++++++++++++++++++++",
"            XX XXXXXXXXXXXXXXXXXXXXXXX XXXXXXXXXXXXX XO++++++++++++++++++++",
"            XXXX OO.OO XOXO.OO.OOOO.OO OO X.OO.OO XX XO++++++++++++++++++++",
"            XXXXXOOOOOXXOXOOOOOOOOOOOO OOXXOOOOOOXXXXXO++++++o+++++++++++++",
"            XX XXXXXXXXXXXXXXXXXXXXXXX XXXXXXXXXXXXX XO++++++++++++++++++++",
"            XXXX OOOOO XOXO.OO.OOOO.OO OO X.OO.OO XX XO++++++++++++++++++++",
"            XXXXXOOOOOXXOXOOOXOOOOOOOOXOOXXOOOOOXXXOXXO++++++o+++++++++++++",
"            X  X XX XX XXXX XX XX XXXX X  X XX XX X   X++++++o+++++++++++++",
"ooooooooooooXooXXooooooooXooXoXoooooXoXoooooXXoooXXoXXo+o++o+o+o+o++++++o+o",
"ooooooooooooooooooooooooooooooooooooooooooooooooooooooo++++++o++++++++++++o",
"ooooooooooooooooooooooooooooooooooooooXoooooooooooooooo++++o+o+++o++++++o+o",
"ooooooooooooooooooooooooooooooooooooooooooooooooooooooo++++++o++++++++++++o",
"ooooooooooooooooooooooooooooooooooooooooooooooooooooooo++++o+o+++o++++++o+o",
"ooooooooooooooooooooooooooooooooooooooXoooooooooooooooo++++o+o+++o++++++o+o",
"ooooooooooooooooooooooooooooooooooooooooooooooooooooooo++++++o++++++++++++o",
"ooooooooooooooooooooooooooooooooooooooooooooooooooooooo++++o+o+++o++++++o+o",
"ooooooooooooooooooooooooooooooooooooooXoooooooooooooooo++++++o++++++++++++o",
"ooooooooooooooooooooooooooooooooooooooooooooooooooooooo++++++o++++++++++++o",
"ooooooooooooooooooooooooooooooooooooooXoooooooooooooooo++++o+o+++o++++++o+o",
"ooooooooooooooooooooooooooooooooooooooooooooooooooooooo++++++o++++++++++++o",
"ooooooooooooooooooooooooooooooooooooooooooooooooooooooo++++o+o+++o++++++o+o",
"ooooooooooooooooooooooooooooooooooooooXoooooooooooooooo++++o+o+++o++++++o+o",
"ooooooooooooooooooooooooooooooooooooooooooooooooooooooo++++++o++++++++++++o",
"ooooooooooooooooooooooooooooooooooooooooooooooooooooooo++++o+o+++o++++++o+o",
"ooooooooooooooooooooooooooooooooooooooXoooooooooooooooo++++o+o+++o++++++o+o",
"ooooooooooooooooooooooooooooooooooooooooooooooooooooooo++++++o++++++++++++o",
"ooooooooooooooooooooooooooooooooooooooXoooooooooooooooo++++o+o+++o++++++o+o",
"ooooooooooooooooooooooooooooooooooooooooooooooooooooooo++++++o++++++++++++o",
"ooooooooooooooooooooooooooooooooooooooooooooooooooooooo+o++++o++++++++++++o",
"ooooooooooooooooooooooooooooooooooooooXooooooXooooooXoo+o++o+o+++o++++++o+o",
"XXXXXXXXXXXXOoOOoOoOOoOOoOOOOoOOoOOoOoXOoOOoOOOOoOOoXO++oo+++Xo++o++o+o++++",
"+XXXXXXXXXXo++++++++++++++++++++++++++X+++++++++++++X++++++++o+++o+++++++++",
"+XXXXXXXXXXX+O+++++++OO+++++O++++++++OX++++++++++O+OX++++++o+o+++o++++++o+o",
"oXXXXXOXXXXX++++++++++O+++++O+++++++++X++++++++++OO+XX+++o+o+o+++++++++++++",
"+XXXXXXXXXXo++++++++++++++++++++++++++X+++++++++++++X++++++o+o+++o++++++o+o",
"+XXXXXXXXXXX+OO++++++OO+++++O++++++++OX++++++++++OOOOO+++o+o+o+++o++++++o+o",
"oXXXXXOXXXXX++++++++++++++++++++++++++X+++++++++++O+XX+++++o+o+++++++++++++",
"+XXXXXXXXXXo+O+++++++O+++++++++++++++OX++++++++++++OX++++++o+o+++o++++++o+o",
"+XXXXXXXXXXX+OO++++++OO+++++O++++++++OX++++++++++OOOXOo++o+o+oo++o+o++o+o+o",
"OXXXXXOXXXXX++++++++++++++++++++++++++X+++++++++++++X++++++o+o+++++++++++++",
"+XXXXXXXXXXX+O+++++++OO+++++O++++++++OX++++++++++O+OX+++o++o+o+++o++++++o+o",
"oXXXXXOXXXXX++++++++++O+++++O+++++++++X++++++++++OO+XXo++o+o+oo++++o++o++++",
"OXXXXXOXXXXo++++++++++++++++++++++++++X+++++++++++++X++++++o+o+++++++++++++",
"+XXXXXXXXXXX+O+++++++OO+++++O++++++++OX++++++++++O+OO++++o+o+o+++o++++++o+o",
"oXXXXXOXXXXX++++++++++O+++++O+++++++++X++++++++++OO+XX+++++o+o+++++++++++++",
"+XXXXXXXXXXo+O+++++++O+++++++++++++++OX++++++++++++OX++++++o+o+++o++++++o+o",
"+XXXXXXXXXXX+OO++++++OO+++++O++++++++OX++++++++++OOOOOo++o+o+oo++o+o++o+o+o",
"XXXXXXOXXXXX++++++++++++++++++++++++++X+++++++++++++Xo+++++o+o+++++++++++++",
"+XXXXXXXXXXo+O+++++++O+++++++++++++++OX++++++++++++OX+++o++o+o+++o++++++o+o",
"oXXXXXOXXXXX++O+++++++O+++++O+++++++++X++++++++++OO+XXo++o+o+oo++++o++o++++",
"OXXXXXOXXXXX++++++++++++++++++++++++++X+++++++++++++X++++++o+o+++++++++++++",
"+XXXXXXXXXXX+O+++++++OO+++++O++++++++OX++++++++++O+OO+++o++o+o+++o++++++o+o",
"oXXXXXOXXXXX++++++++++O+++++O+++++++++X++++++++++OO+XX+++++o+o+++++++++++++",
"+XXXXXXXXXXo+O+++++++O+++++++++++++++OX++++++++++++OX++++++o+o+++o++++++o+o",
"+XXXXXXXXXXX+OO++++++OO+++++O++++++++OX++++++++++OOOOO+++o+o+o+++o++++++o+o",
"XXXXXXOXXXXX++++++++++++++++++++++++++X+++++++++++O+XX+++++o+o+++++++++++++",
"+XXXXXXXXXXo+O+++++++O+++++++++++++++OX++++++++++++OX+++o++o+o+++o++++++o+o",
"oXXXXXXXXXXX+OO++++++OO+++++O++++++++OX++++++++++OOOXXo++o+o+oo++o+o++o+o+o",
"OXXXXXOXXXXX++++++++++++++++++++++++++X+++++++++++++X++++++o+o+++++++++++++",
"+XXXXXXXXXXX+O+++++++OO+++++O++++++++OX++++++++++O+OX+++o++o+o+++o++++++o+o",
"oXXXXXOXXXXX++++++++++O+++++O+++++++++X++++++++++OO+XX+++o+o+o+++++++++++++",
"+XXXXXOXXXXo++++++++++++++++++++++++++X+++++++++++++X++++++o+o+++++++++++++",
"+XXXXXXXXXXX+OO++++++OO+++++O++++++++OX++++++++++OOOOO+++o+o+o+++o++++++o+o",
"oXXXXXOXXXXX++++++++++++++++++++++++++X+++++++++++O+XX+++++o+o+++++++++++++",
"+XXXXXXXXXXo+O+++++++O+++++++++++++++OX++++++++++++OX++++++o+o+++o++++++o+o",
"+XXXXXXXXXXX+OO++++++OO+++++O++++++++OX++++++++++OOOXOo++o+o+oo++o+o++o+o+o",
"OXXXXXOXXXXX++++++++++++++++++++++++++X+++++++++++++X++++++o+o+++++++++++++",
"+XXXXXXXXXXX+OO+O+o++OO+O+++OX++O++O+XX+O++O++++XO+OX+++o++o+X+++o++++++o+o",
"+XOO+OOOO+OO++++++++++++++++++++++++++X+++++++++++++X++++++++o++++++++++++o"
};
