/* XPM */
static char *result[] = {
/* columns rows colors chars-per-pixel */
"75 75 76 1 ",
"  c #9C0000",
". c #A50000",
"X c #AD0000",
"o c #B00001",
"O c #B1020C",
"+ c #B10710",
"@ c #B20C14",
"# c #B21017",
"$ c #B2141A",
"% c #B2191E",
"& c #B21D21",
"* c #B32125",
"= c #B32629",
"- c #B42A2D",
"; c #B42E31",
": c #B43235",
"> c #B53639",
", c #B53A3C",
"< c #B63F41",
"1 c #B74345",
"2 c #B74749",
"3 c #B84748",
"4 c #B84B4C",
"5 c #B94F50",
"6 c #BA5355",
"7 c #BB5758",
"8 c #BC5B5C",
"9 c #BC5F60",
"0 c #BD6263",
"q c #BF6768",
"w c #BF696A",
"e c #C06C6D",
"r c #C16F70",
"t c #C27375",
"y c #C37778",
"u c #C47B7C",
"i c #C67F80",
"p c #C78283",
"a c #C88586",
"s c #C88788",
"d c #CA8C8D",
"f c #CC8F90",
"g c #CD9394",
"h c #CF9798",
"j c #CF999A",
"k c #D19D9E",
"l c #D19FA0",
"z c #D3A3A4",
"x c #D5A7A8",
"c c #D6ACAC",
"v c #D8AEAE",
"b c #D9AFB0",
"n c #DAB3B4",
"m c #DBB7B8",
"M c #DDBBBC",
"N c #E0BEBF",
"B c #DFC0C0",
"V c #E2C4C5",
"C c #E3C7C8",
"Z c #E5CCCC",
"A c #E8CECE",
"S c #E6CFD0",
"D c #E9CFD0",
"F c #E7D1D2",
"G c #E9D3D4",
"H c #EAD7D8",
"J c #ECDBDC",
"K c #EFDFE0",
"L c #EFE1E1",
"P c #F1E4E5",
"I c #F2E7E8",
"U c #F5EBEC",
"Y c #F7F0F1",
"T c #F9F4F5",
"R c #FBF7F8",
"E c #FEFEFE",
/* pixels */
"$$$$%$$$$$$$$$$$$$$$$$&Xy6o%$$$$$$$$$$$%$$$$$$$$$$$$$$$$$$$$$$$$$$$$$$$$$$$",
"$$$%ooo%$$$$$$$$%%$$#-ooPc.&%$$$$$$$$$%$%$$$$$$$$$$$$$$$$$$$$$$$$$%#oo%$$$$",
"$$=X,nu.:@$$$$$@oo$$+,.iEPoo=$$$$$$$$%oXo$$$$$$$$$$$$$$$$$%&$$$$$&o@geX&$$$",
"$$=XsEV.-&$$$$#&3:O%=%XAEEsX&%$$$$$$&o8p1o%$$$$$$$$$$$$$$%oo$$$$#-X1JcX%&$$",
"$%%XhEFXo=#$$%o7Ngo%,.eTEEDXo&$$$$$%*XgAuX%%$$#$@&-$$$$$%O-;O$#$#-X3FxX#&$$",
"$&o;CEUuX-$$$%o6mgo-%XZEEEEpX&$$$$$$&o8g6X%$$$-%%OX#%#$%%olb>O%$#-X7HvX+&$$",
"$*XoZEUy.-$$$$%o-*o-o,nAEUZdX%$$$$$$$$oXo%$$$%X@o:0%O%$%%ozm1o%$$=XtFn-o&$$",
"$$&gIERM5+&$$$$%oO%#$-.XMf.X*$$$$$$$$$&=&$$$$O8,XtF6X;@$%o:<O$$$$=XwFnoo*#$",
"%@.lREEG-o-$$$$$=&#$$+%=Xo-@$$$$$$$$$$$%$$$$O=Fy.gYtX>@$$%oo%$$$&o=dCn0o$%$",
"%ouPEEETb-o*$$$$#$$$#%&*$%*%$$$$$$$$$$$$$$$%o,Tg.xRd.>#$$$*=$$$#*o;gZMwo#%$",
"#OdvxJVlx4o%$$$$$$$$$$$#*&#$$$$$$$$$$$$$$$$*XsEM.JEZo#=#$$#$$$$#=X4xvbsoO%#",
"#%oX.s6.o#%$$$$$$$$$$$$$#$$$$##$$$$$$$$$$$$&oucd6xnk3o*#$$$$$$#*X:ztdwjuo$%",
"$$o%&XO=O+$$$$$$$**#$$$$$$$$#&=%$$$$$$$$$$$$%oXX$X.o$$$$$$$$$$$%o:3X8:%4@#%",
"$$%&%$$%%%$$$$$$%Xo&#$$$$$$$&oo@$$$$$$$$$$$$$+%@@@%+@$$$$$$$$$$$%@o$o@oo%$$",
"$$$$$%$$$$$$$$$$oypX-@$$$$$%o4y-O%$$$$$$$$$$$%&%%%%%%$$$$$$$$$$$$$%%$$%%$$$",
"$$$$$$%%$$$$$$%@XCZX%*$$$$$&ohAeo*#$$$$$$$$$$$$$$$$$$$$$$$$$$$$$$$$$$%@O#$$",
"$$$$$%oo#$$$$$*XkJZn.,+%$$$&oez4o&$$$$$%$$$$$$$$$$$$$$$$$$$$$$$$$$$$$#@@+$$",
"$$$$$O,3$+%$$%O;DTUG:o-@$$$$$ooo%$$$$%%$%$$$$$$$$$$$$$$$$$$$$$$$%$$$=Xuv8o%",
"$$$&@okN7o*$@-.kRMCTx.,$$$$$$%=%$$$$$$XXo%$$$$$$$$$$$$$$$$$#$$$&%&#%*odZto%",
"$$$%#ofn7o*$*o8HUYPTFtX:@$$$$$#$$$$$&owh7o%$$$$$$$$&*%$$$$$$$#*oo&%@*o:8*O$",
"$$$$%o+=o#%#;.VEPAZIECX=*#$$$$$$$$#%-.kPp.*%$$$$$$%oXO%#$$$$$*X0zX*&#%Oo@%$",
"$$$$$%#o%$#$$Ogkxrexkd;o*#$$$$$$$$$%&=hZa%%$$$$$$$o4w-O%#$$$&#.ZEt.,+#%-%#$",
"$$$$@#&*%$$$$&X..oo...@%#$$$$$$$$$@=oXlHdX+&$$$$&$ohCeo=$$$%*XgEEL#X:+$#$$$",
"$$@->&@$$$$$$@:,,==,,:$$$#$$$$$$$$%O:exCje&@$$$$%%oyz7o&$$$&X8UEEEMX**$$$$$",
"$$&o.O%#$$$$$$#@@$$@@#$$$*&#$$$$$#*o4yxSju>+%$$$$$@ooo$$$$$&o6TEEEB.=&$$$$$",
"$%oek=o&#$$$$$$$$$$$$$$#%Oo%$$$$$$=X,gcVxfoo&$$$$$%$O$$$$$$&XjEEEEJ4o-@$$$$",
"%%XjJ4X-#%$$$$$$$$$$$$$$o::o%$$$$&o7nywM7sc>o%$$$$$%&$$$$$$#XZEEEERsX;$$$$$",
"$%XjJ6o-@$$$$$$%&$$$$#*@+xv,o%$$$%o38.>yoX0>O$$$$$$$$$$$$$%$XGEEEEEdX:$$%$$",
"%@ozHeo-#$$$$$%oo%#$$$*#oxn>o%$$$$%oX$$o&+o+%$$$$$$$$$$$$$*XuUPYRITC%o=@$$$",
"%+XxHtX-#$$$#%o13o%$$$#%o;>+$$$$$$$$%%$%$%%$$$$$$$$$$$$$$$$@:-.kUoo,*+%$$$$",
"%o-cSpX*%$$$%#$vm:O&#$$$%oo$$$$$$$$$$$$$$$$$$$$$$$$$$$$$$$$%@+XfHoo&@%$$$$$",
"%O,vGao%%$$$$#Okv:O%$$$$$%%$$$$$$$$$$$$$$$$$$$%%%$$$$$$$$$$$$$$%%%$$$$$$$$$",
"%XtmCz7X-#$$#%OO%o$$$$%*%#$$$$$$$$$$$$$$$$$$$$ooO%#$$$$$$$$$$$$@@$$$$$$$&%$",
"$otnMk4X=$$$$$%$@%$*&$#XO&#$$$$$%%$$$$$$$$$$%o7t-O%$$$$$$$$$$$$%%$$$$$%Ooo%",
"owc8syx=o*#$$$$%&$%oo#%8:o&$$$$$%%%$$$$$#%*$$XkA0X-#$$$$$$$$$$$$$$$$$%O-8:O",
"o6=*tX43o*$$$$$$%@O66.4Fp.;$$$$$oXo%$$$$%%#&$ork4o*#$$$$$$$%%$$$$$$$@-oqVdX",
"&oo&X-Xo*#$$$$$$*ooMx eUkX-$$$$o9s3o&#$$%ooO%$XXo$$$$$$$$$%&&%$$$$$$$*o7npo",
"#=*$=#-%@$$$$$$#*ooJZ sEm.%&$$$ofDto-$@:.aMoo%&&&$$$$$$$$%+oo+$$$$$$$$$o$o+",
"$$#$$$#$$$$$$$$$=X0RKXMEP<o=$$$o8d4o*#%-XFEuo%%%$$$$$$$$$$@spO%$$$$$$$$%o@%",
"$$$$$#$$$$$$$$$$$o8zg6fcz8o%%$$$ooo$$#**XFEd.=#$$$$$$$$$&O=MN;O%$$$$$#$;=%$",
"$$$$%*$$$$$$$$$$$%oXX$X.X@%$$$$$%%%$$$-XfYEH1o%$$$$$$$$$$%Oty+$%$$$$$$%X%$$",
"$$$%Oo%%$$$$$$$$$$@**O@*$O$$$$$$%%$$$+:X8IEVXo%$$$$$$$$$$$@Xo@$$$$$$$$@e#$$",
"$$$O->o@$$$$$$$$$$%%%%%%%%$$$$$$$$$$#=o4ZEETzo%$$$$$$$$$$$%%$%$$$$$+,.uTuX*",
"$%+ohM7X=$$$$$$$$$$$$$$$$$$$$$$$$$$%#-o,ZEETzX%$$$$$$$$$$$$$%$$$$$$=o=KEK&o",
"$%@ogN8X=$$$$$$$$$#%%$$$$$$$$$$$$$$$&$%cEEEEIuX&$$$$$$$$$$$$$$$$$$@:X0YET6o",
"$$%O%:@@%#%%#$$$$$#oo%$$$$$$$$$$$$$#=o7vlmLkchO$$$$$$$$$$$$$$$$$$$@,.zEEEhX",
"$$$%@o$$#%@+%$$$%+$e7o%$$$$$$$$$$$$$#&o..1d..X%$$$$$$$$$$$$$$%%$$$%-XNEEEMX",
"$$$#%%$$%$oo#%$$*o<Nn@O*$$$$$$$$$$$$$#&->$X::-$$$$$$$$$$$%*$%oo*#$&o;thHgt&",
"$$$$$$$@,.znXo&$%o-hhO+&$$$$#$$$$$$$*%##+&=@@@$$$$$$$$$#&oo&o06o=#$$*.ohX.&",
"$$$$$$#-o1UEiX&$$$OooO$$$$@*-#$$$$$$o@%$%$#$$$$$$$$$$$$*X68oXZn.,+$$#::X;:#",
"$$$$$$#,.xEECX#%$$&&&%$$%@*Oo=@%$$$OOo+%#$%$$$$$$$$$$$+,.vCXoHZ.>@$%$+$-$+$",
"$$$$$$%-XMEEJ$o%$$$%%$$$#%$$:o*@$&o4xso%%$$$$$$$$$$$$%+,.CP.:YPX&&$$$$$$$$$",
"$$$$$#-o-UEEEtX&$$$$$$$%O1.zFo#&$*o8Vzo$&$$$$$$$$$$$$#*%oJR4gERiX;@$$$$$$$$",
"$$$$$#-X8cKPVtX%$$$$$$$O>.tKUM.&$%O*84o$$$$$$$$$$$$$$$&o3dh7uzlyo*$$$$$$$$$",
"$$@$$$$O,.sk.O&$$$$$$$$=o4UHnRzX*$%+oo%$$$$$$$$$$$$$$$#%+XXoo..o&@$$$%=&$$$",
"#&-%#$$%Oo-:oo%$$$$$$$@:XyRZhTCX-#$%=&#$$$$$$$$$&=%$$$$$#-:$$--#$$$$%Ooo%$$",
"%oX#%#$$%=Oo=&$$$$$$$$$;XbRmsUI,o&$$$$$$$$$$$$$%oXO%$$$$$$$$%$$%$$$*o,p7o%$",
"o3e=o&#$%@&&@$$$$$$$$$=OOHRndLRsX-@$$$$$$#$$$$%o0f3o*@$$$$$$$$$$$$#=oeAko+%",
"ogAto-$$$$$$$$$$$$$$$@:o6TRxuHEcX-#$$$$$$$$$$&$odFuX=$$$$$$$$$$$$$#*o,geo$$",
"oex6o*#$$$$$$$$+@$$$$$-XdCZu$MZM-+*$$$$$$$$$$$$o4p3o*$$$$$$$$$$$$$$$%Ooo$$$",
"$oXO$$$$$$$$%%@@++%$$$@&X.Xo%X.X%$$$$$$$$$$$$$$%ooo%$$$$$$$$$$$$$$$$&%%$$$$",
"$$%$$$$$$$$$$$okz*@%$$$$&--&$=-=#$$$$$$$$$$$$$$$%*%$$$$$$$$$$$$$$#%#o+%$$$$",
"$$$$$$$$$$$$%+%vN,o*$$$$$#@$$##$$$$$$$$$$$$$$$$$$$$$$$$$$$$$$$$$$&o*e:o&$$$",
"$$$$$$$$=%$$$%o37o%$$$$$$$$$$$$$$$$$$$$$$$$$$$$$$$$$$%$$$$$$$$$$+>.0Pu.:#$$",
"$$$$=*$$Xo&#$#&oo%$$$$$$$$$$$$$&*$$$$$$$$$#$%#-*#$$$$$$$$$$$$$$$%:.xEM.$&$$",
"$$$%oo$#t3X*$$$*=$$$$$$$$$$$$$%oo@$$$$$$%@=-#%Xo*@$$$$$$$$$$$$$@-o:JEU7o-#$",
"$%+o00.3Hf.;#$$##$$$$$$$$$$$$%o8eO$%$$$$@*Xo*ow7o*#$$$$$$%%$$$$#:.dEEEl.&&$",
"$*ooMn.eUxX=%$$$$$$$$$$$$$$$$@OcV3o*#$$#=o80o.Sv.,+%$$$$$*%%$$#-X&PETET3X=$",
"#=XoJF aEB.@*#$$$$$$$##$$$$$$$opk:o&$$$@,.MMXoLC.,@$$$$$Ooo@$$#-oeCKEPDtX&$",
"$*X8TPXmEP6o=$$$$$$$$==#$$$$$%+ooO%$$$$@,.ZJ.2THX=&#$$%O-guo$$$#@>.8Zu.-$#$",
"$%o6dp6uhg7o%$$$$$$%%oX&$$$$$$%$O&$$$$#*O*PT1kERyo;#$#=o1Vn#+%$$$Ooooooo%$$",
"$$%oXX+oXXO%#$$$$$%+O97o#%$$$$$%&$$$$$$&o4sd4ujheo*$$$%#+two$$$$#$-*o%-%$$$",
"$$$#**+$=%@$$$$$$$*o>Nm-o*$$$$$$$$$$$$$$%+XXOXXXo%$$$$#$@Xo$$$$$$$#$=%@$$$$",
"$$$$%$%%$%%$$$$$$$%O$hh%o&$$$$$$$$$$$$$$$#%%@@&%@$$$$$$$%%%$$$$$$$$$#$$$$$$",
"$$$$$$$$$$#$$$$$$$$$@oo@$$$$$$$$$$$$$$$$$$$%%%%%%$$$$$$$$%$$$$$$$$$$$$$$$$$"
};
